<?xml version="1.0" standalone="no"?>
<!DOCTYPE svg PUBLIC "-//W3C//DTD SVG 20010904//EN"
 "http://www.w3.org/TR/2001/REC-SVG-20010904/DTD/svg10.dtd">
<svg version="1.0" xmlns="http://www.w3.org/2000/svg"
 width="750.000000pt" height="1000.000000pt" viewBox="0 0 750.000000 1000.000000"
 preserveAspectRatio="xMidYMid meet">
<metadata>
Created by potrace 1.15, written by Peter Selinger 2001-2017
</metadata>
<g transform="translate(0.000000,1000.000000) scale(0.100000,-0.100000)"
fill="#000000" stroke="none">
<path d="M6361 9978 c-5 -13 -187 -498 -405 -1078 -219 -580 -430 -1143 -471
-1250 -41 -107 -250 -663 -465 -1235 -1151 -3057 -1058 -2815 -1065 -2780 -6
29 -9 30 -61 30 -46 0 -58 4 -84 30 -39 39 -79 139 -116 285 l-28 115 -17 -85
c-8 -47 -21 -105 -28 -130 -17 -59 -86 -203 -105 -219 -13 -11 -56 11 -262
128 -136 78 -249 139 -253 136 -3 -4 -6 -52 -6 -106 l0 -100 205 -110 c369
-198 735 -403 756 -425 14 -13 24 -40 29 -75 14 -101 49 -139 127 -139 49 0
72 14 39 25 -22 7 -61 64 -61 89 0 27 28 74 51 87 38 20 106 13 156 -17 56
-32 141 -118 149 -150 20 -79 -103 -97 -178 -26 -32 29 -32 28 -16 -19 34
-102 140 -159 235 -126 37 12 43 12 47 0 4 -8 6 -81 6 -163 0 -245 -37 -371
-128 -435 -43 -29 -47 -30 -160 -30 -101 1 -123 4 -158 22 -56 30 -94 77 -94
116 l0 31 -31 -30 c-60 -57 -75 -126 -44 -201 21 -50 19 -59 -17 -74 -51 -21
-151 -122 -182 -184 -26 -49 -60 -164 -52 -172 1 -2 18 18 36 43 58 81 97 114
135 114 24 0 39 -7 54 -27 l21 -26 73 70 c77 75 142 117 195 127 38 7 82 -8
82 -28 0 -16 -115 -121 -203 -185 -136 -99 -284 -148 -479 -158 -157 -8 -278
23 -278 72 0 20 40 55 64 55 21 1 21 1 2 15 -28 21 -90 19 -136 -5 -79 -40
-124 -21 -184 78 -55 92 -74 151 -137 437 -33 148 -69 306 -80 350 -24 91 -21
144 10 185 11 15 17 30 14 34 -4 3 -34 6 -68 6 -67 0 -78 7 -109 67 -36 71
-40 163 -25 525 8 189 14 354 14 367 0 20 -14 32 -78 67 -51 28 -79 39 -82 31
-3 -10 -46 -622 -45 -654 0 -8 -15 -7 -53 6 -125 43 -249 122 -349 221 l-67
67 -27 -28 c-33 -35 -77 -53 -107 -45 -35 8 -78 45 -92 79 l-13 30 -15 -24
c-9 -13 -21 -46 -28 -74 -6 -27 -13 -56 -15 -63 -3 -11 -17 -12 -57 -7 -51 6
-113 20 -143 32 -24 9 22 -61 65 -100 21 -19 52 -42 69 -53 18 -10 32 -22 32
-26 0 -11 -43 -38 -62 -38 -29 0 -21 -18 23 -49 45 -33 103 -56 164 -66 l40
-7 -28 -24 c-16 -13 -35 -24 -43 -24 -8 0 -14 -4 -14 -10 0 -18 130 -50 204
-50 l71 -1 -33 -30 c-19 -17 -32 -32 -30 -34 2 -3 32 -12 67 -21 92 -23 162
-12 270 42 120 61 130 60 216 -29 62 -63 81 -92 148 -227 84 -171 131 -298
170 -465 44 -186 75 -366 63 -362 -18 6 -114 138 -151 208 -39 74 -42 103 -20
175 16 53 19 122 7 141 -6 9 -12 7 -25 -7 -22 -26 -49 -25 -73 1 -17 19 -19
38 -19 158 0 91 -5 150 -14 180 -13 37 -16 40 -23 22 -4 -12 -18 -26 -32 -32
-26 -12 -31 -10 -128 45 -146 84 -318 8 -318 -139 0 -59 23 -108 69 -145 43
-36 90 -46 141 -31 35 10 80 54 80 78 0 4 -22 8 -49 8 -89 0 -146 67 -104 123
31 42 90 43 136 2 46 -40 61 -74 118 -271 83 -288 135 -399 271 -577 74 -97
155 -176 248 -239 45 -31 61 -51 90 -109 50 -101 48 -99 73 -62 30 44 82 70
127 63 25 -4 49 -20 82 -56 26 -27 55 -49 66 -49 17 0 22 -9 27 -44 4 -25 5
-49 2 -54 -23 -36 89 -284 212 -471 49 -75 81 -134 81 -150 0 -14 -16 -48 -35
-75 -19 -27 -35 -60 -35 -72 0 -26 51 -170 103 -289 43 -100 107 -228 112
-224 8 9 91 225 122 319 47 142 53 214 23 275 -19 39 -34 52 -98 88 -94 53
-147 96 -133 110 6 6 43 11 83 11 87 1 130 -20 173 -86 l28 -42 16 24 c9 13
24 53 34 89 12 44 29 77 54 104 55 62 95 156 95 226 0 32 -7 71 -15 87 -23 44
-39 140 -32 184 8 45 50 96 86 105 81 20 138 -93 64 -127 -30 -14 -57 5 -53
36 2 17 10 21 36 20 36 -2 42 14 16 40 -22 23 -51 20 -79 -9 -34 -33 -32 -70
5 -107 27 -26 36 -30 68 -25 51 9 82 46 82 100 0 73 -50 117 -132 117 -92 0
-146 -74 -147 -202 -1 -38 -4 -68 -7 -68 -3 0 -33 15 -67 34 -91 51 -206 86
-303 93 -85 6 -101 0 -69 -27 38 -31 4 -73 -65 -80 l-53 -5 27 -32 28 -33 -31
-17 c-37 -21 -35 -31 7 -58 32 -20 34 -32 16 -79 -5 -13 2 -16 44 -16 28 0 62
4 76 10 23 8 26 7 26 -12 0 -20 4 -20 60 -15 71 8 144 40 168 74 44 64 58 76
79 69 23 -7 53 -71 53 -112 0 -39 -37 -103 -73 -124 -40 -25 -47 -25 -47 1 0
20 -50 79 -68 79 -5 0 -14 -18 -20 -39 -28 -93 -165 -106 -261 -25 -74 62
-129 192 -138 324 -6 97 8 147 50 175 33 21 221 76 269 78 26 1 46 -6 65 -21
75 -60 102 -73 159 -79 l59 -6 -22 25 c-67 73 26 177 157 178 66 0 167 -23
219 -50 l39 -19 7 83 c7 83 7 84 38 93 35 9 6 -58 716 1698 93 231 339 839
546 1350 627 1549 1150 2841 1295 3201 l137 341 -443 834 -444 834 -35 3 c-29
3 -37 -1 -44 -20z m-2454 -9396 c27 -17 30 -57 17 -177 -8 -66 -16 -124 -18
-130 -4 -12 -61 162 -71 216 -12 63 31 117 72 91z"/>
<path d="M866 9955 c-56 -133 -81 -281 -73 -433 8 -169 -29 -72 514 -1330 169
-392 203 -484 203 -546 0 -16 3 -27 6 -24 3 4 50 139 104 301 l98 295 -18 39
c-9 21 -106 227 -215 458 -109 231 -212 452 -230 490 -101 216 -367 781 -370
784 -2 2 -11 -14 -19 -34z"/>
<path d="M1825 9638 c103 -214 156 -424 156 -613 0 -62 -5 -134 -11 -159 -13
-61 -73 -243 -496 -1523 -309 -935 -354 -1078 -353 -1130 1 -100 11 -103 47
-16 85 208 284 414 478 494 53 22 53 23 75 93 11 39 144 467 294 951 150 484
281 918 289 964 70 367 -112 745 -491 1022 l-42 30 54 -113z"/>
<path d="M2290 9637 c0 -3 19 -36 42 -73 173 -287 270 -679 239 -979 -14 -138
-19 -158 -214 -815 -86 -289 -187 -631 -225 -760 l-70 -235 71 -7 c90 -10 199
-40 284 -78 36 -17 67 -29 68 -28 2 2 15 44 30 93 52 176 338 1103 401 1304
96 303 113 441 79 634 -56 321 -294 654 -652 911 -29 21 -53 36 -53 33z"/>
<path d="M2850 9417 c0 -3 16 -29 35 -59 132 -198 256 -526 307 -808 27 -149
29 -384 5 -482 -17 -68 -162 -564 -358 -1220 -60 -202 -109 -371 -109 -377 0
-5 22 -40 50 -76 155 -205 219 -495 165 -751 -6 -28 -4 -31 30 -41 27 -9 37
-9 40 0 27 78 263 833 413 1317 296 955 309 1005 298 1210 -19 375 -202 717
-557 1044 -103 96 -319 260 -319 243z"/>
<path d="M676 9319 c-52 -41 -25 -119 42 -119 74 0 95 104 27 130 -35 13 -38
13 -69 -11z"/>
<path d="M557 9065 l-47 -134 69 -158 c95 -218 486 -1117 612 -1407 103 -237
104 -238 113 -200 5 22 9 116 10 209 1 217 -6 242 -140 549 -253 576 -557
1262 -563 1268 -4 4 -28 -53 -54 -127z"/>
<path d="M780 9020 c-41 -41 -11 -113 48 -113 62 0 92 60 56 111 -20 29 -76
30 -104 2z"/>
<path d="M920 8710 c-62 -62 35 -154 100 -95 25 23 26 76 2 98 -25 23 -78 21
-102 -3z"/>
<path d="M448 8604 c-33 -17 -44 -53 -27 -86 16 -31 28 -38 65 -38 38 0 64 27
64 67 0 52 -55 83 -102 57z"/>
<path d="M352 8480 c-5 -14 -28 -78 -51 -144 l-41 -118 407 -954 c225 -524
411 -953 414 -954 14 0 20 248 9 355 -19 195 -48 288 -194 627 -150 351 -499
1147 -521 1187 l-13 26 -10 -25z"/>
<path d="M547 8312 c-49 -53 13 -140 77 -110 34 15 51 59 35 90 -6 12 -17 26
-23 30 -21 14 -73 8 -89 -10z"/>
<path d="M1170 8160 c-41 -41 -12 -120 45 -120 31 0 75 41 75 70 0 29 -44 70
-75 70 -14 0 -34 -9 -45 -20z"/>
<path d="M670 8050 c-61 -61 23 -158 88 -102 35 29 38 67 8 96 -30 31 -69 33
-96 6z"/>
<path d="M1301 7851 c-25 -25 -27 -73 -5 -95 61 -61 158 14 107 82 -26 35 -74
41 -102 13z"/>
<path d="M1400 7573 c-50 -18 -68 -84 -32 -116 34 -31 98 -20 113 20 13 36 1
72 -32 88 -15 8 -29 15 -31 14 -2 0 -10 -3 -18 -6z"/>
<path d="M936 7449 c-50 -39 -22 -119 43 -119 33 0 71 39 71 72 0 24 -44 68
-68 68 -11 0 -31 -9 -46 -21z"/>
<path d="M1056 7149 c-50 -39 -22 -119 43 -119 33 0 71 39 71 72 0 24 -44 68
-68 68 -11 0 -31 -9 -46 -21z"/>
<path d="M1130 6820 c-41 -41 -12 -120 45 -120 30 0 75 41 75 68 0 59 -79 93
-120 52z"/>
<path d="M1850 6724 c-164 -35 -312 -110 -427 -218 -18 -16 -33 -33 -33 -37 0
-4 43 -31 95 -59 l94 -51 61 41 c109 74 239 120 343 120 l47 0 0 49 c0 26 3
76 6 110 l7 61 -64 -1 c-35 0 -93 -7 -129 -15z"/>
<path d="M2070 6714 c0 -10 -7 -140 -15 -289 -8 -148 -15 -282 -15 -296 0 -24
14 -35 125 -97 69 -39 125 -67 125 -64 0 4 9 142 20 307 10 165 20 325 22 355
l2 55 -64 18 c-36 9 -95 20 -132 23 -62 6 -68 5 -68 -12z"/>
<path d="M2366 6627 c-3 -28 -7 -81 -10 -117 l-5 -65 60 -39 c88 -57 183 -165
229 -260 50 -104 70 -188 70 -304 0 -114 -20 -205 -65 -297 -18 -38 -33 -70
-32 -71 1 -1 42 -25 92 -54 l89 -52 17 21 c22 27 75 154 97 233 27 100 24 348
-6 451 -74 257 -243 461 -479 581 l-52 26 -5 -53z"/>
<path d="M1900 6471 c-19 -5 -25 -14 -27 -41 -11 -147 -33 -466 -33 -488 0
-24 10 -34 76 -71 41 -24 77 -41 78 -40 2 2 8 139 15 304 7 165 14 310 17 323
4 21 1 22 -48 21 -29 -1 -64 -4 -78 -8z"/>
<path d="M1323 6387 c-59 -78 -79 -115 -68 -126 6 -5 132 -79 280 -164 l270
-155 6 62 c4 33 7 89 8 122 l1 61 -207 115 c-115 64 -218 120 -229 127 -20 9
-26 5 -61 -42z"/>
<path d="M1199 6194 c-64 -152 -87 -365 -54 -525 48 -239 184 -444 385 -578
93 -62 196 -109 209 -95 5 5 11 55 14 111 l6 102 -62 33 c-96 50 -223 183
-274 285 -58 115 -77 207 -71 346 4 87 11 129 31 186 15 41 25 76 24 76 -1 1
-40 23 -87 50 -47 26 -88 50 -93 52 -4 2 -16 -17 -28 -43z"/>
<path d="M1429 6073 c-20 -49 -39 -127 -39 -158 0 -29 8 -35 293 -187 l292
-157 7 37 c4 20 7 71 7 112 l0 75 -265 150 c-146 83 -270 151 -275 153 -5 2
-14 -9 -20 -25z"/>
<path d="M2037 6023 c-4 -21 -7 -76 -7 -123 l0 -85 262 -150 c144 -83 268
-154 275 -158 18 -11 82 123 86 177 l2 38 -295 165 c-162 91 -300 167 -306
170 -7 2 -14 -12 -17 -34z"/>
<path d="M2017 5643 c-4 -76 -10 -209 -14 -297 l-6 -159 59 7 c127 15 175 28
184 50 9 23 31 386 24 397 -3 6 -210 126 -234 137 -4 1 -10 -59 -13 -135z"/>
<path d="M1816 5586 c-3 -17 -17 -224 -32 -459 -23 -366 -25 -430 -13 -441 18
-17 716 -416 728 -416 7 0 21 137 21 210 0 25 -21 39 -285 185 l-285 159 0 42
c0 23 7 183 15 354 9 172 14 314 13 315 -2 1 -38 20 -80 42 l-78 40 -4 -31z"/>
<path d="M2296 5573 c-3 -21 -6 -68 -6 -105 l0 -66 238 -128 c130 -70 239
-128 241 -130 2 -2 -4 -164 -14 -360 -10 -202 -14 -359 -9 -364 15 -14 235
-133 239 -129 2 2 13 153 24 334 12 182 28 429 36 549 8 121 15 241 15 267 l0
47 -64 36 c-35 20 -67 36 -69 36 -3 0 -11 -17 -17 -37 -18 -54 -90 -193 -101
-193 -5 0 -120 63 -254 140 -134 77 -246 140 -248 140 -3 0 -7 -17 -11 -37z"/>
<path d="M2415 5273 c-80 -60 -245 -113 -352 -113 -42 0 -65 -4 -68 -12 -2 -7
-5 -57 -8 -110 l-4 -98 73 0 c134 0 290 42 414 112 76 43 173 119 163 128 -4
4 -51 30 -103 58 -88 47 -97 49 -115 35z"/>
<path d="M2566 5044 c-164 -32 -294 -95 -429 -208 -26 -22 -46 -43 -45 -48 2
-5 46 -33 98 -62 l95 -53 35 27 c91 70 224 123 343 135 l67 7 0 78 c0 43 3 92
6 109 l7 31 -54 -1 c-30 0 -85 -7 -123 -15z"/>
<path d="M3060 4931 c0 -32 -2 -85 -5 -117 l-6 -59 57 -35 c125 -78 240 -241
281 -400 34 -136 17 -311 -46 -445 -15 -33 -28 -64 -29 -70 -1 -5 39 -34 90
-63 l92 -53 18 23 c32 41 80 170 100 268 26 122 20 307 -12 418 -69 245 -235
449 -452 558 -37 19 -72 34 -78 34 -6 0 -10 -25 -10 -59z"/>
<path d="M2647 4800 c-32 -4 -62 -11 -66 -16 -7 -8 -41 -435 -41 -515 0 -33 4
-38 72 -77 40 -23 74 -39 77 -36 6 5 29 457 30 577 1 42 -2 76 -6 76 -5 -1
-34 -5 -66 -9z"/>
<path d="M1910 4533 c-105 -227 -106 -517 -1 -748 61 -133 178 -276 296 -360
60 -43 199 -115 221 -115 8 0 14 30 19 88 3 48 7 98 8 112 2 20 -7 30 -48 54
-154 89 -266 224 -322 391 -23 70 -27 96 -27 205 0 108 4 136 27 204 14 44 24
83 21 87 -2 4 -28 20 -57 37 -28 16 -68 39 -88 51 l-36 21 -13 -27z"/>
<path d="M2116 4363 c-31 -105 -36 -152 -17 -163 9 -5 142 -76 296 -159 l280
-151 9 100 c5 54 6 105 3 112 -5 14 -528 318 -545 318 -5 0 -16 -26 -26 -57z"/>
<path d="M2730 4257 l0 -123 253 -144 c138 -79 262 -150 274 -158 21 -13 23
-11 46 35 35 69 63 161 51 172 -15 15 -603 341 -614 341 -6 0 -10 -47 -10
-123z"/>
<path d="M2720 4066 c0 -35 -17 -385 -23 -493 l-4 -53 63 0 c65 0 149 14 173
29 9 6 16 62 26 207 6 110 10 202 9 206 -4 5 -213 127 -236 136 -4 2 -8 -12
-8 -32z"/>
<path d="M3046 3565 c-89 -49 -170 -72 -281 -82 l-75 -6 0 -56 c0 -31 -3 -80
-6 -108 l-7 -53 77 0 c159 0 332 55 475 151 49 32 93 65 100 73 10 11 -6 23
-93 70 -58 31 -107 56 -108 55 -2 0 -39 -20 -82 -44z"/>
<path d="M3314 3356 c-23 -7 -75 -32 -117 -55 -42 -23 -109 -53 -149 -67 -72
-24 -241 -50 -259 -39 -5 4 -9 2 -9 -3 0 -13 108 -42 156 -42 21 1 64 7 96 14
68 17 96 7 117 -42 8 -17 18 -32 22 -32 9 0 63 54 120 119 34 39 38 41 95 41
149 -1 350 -133 423 -277 73 -145 65 -300 -24 -447 -19 -32 -34 -60 -33 -61 9
-9 99 46 137 82 24 24 45 43 47 43 1 0 21 -29 44 -65 118 -181 274 -242 392
-152 79 61 108 164 70 250 -13 29 -33 54 -54 67 -45 27 -122 27 -168 -2 l-35
-21 32 -11 c38 -13 68 -42 78 -73 4 -17 -1 -29 -19 -48 -35 -35 -76 -33 -121
7 -45 39 -65 77 -105 203 -43 132 -105 254 -180 353 -79 105 -147 165 -234
207 -128 61 -235 78 -322 51z"/>
<path d="M2726 3137 c4 -12 17 -44 31 -70 57 -113 145 -170 264 -170 59 0 75
5 135 39 172 96 172 96 254 92 83 -5 120 -20 169 -70 31 -31 67 -88 56 -88 -2
0 -27 14 -54 30 -72 45 -164 65 -232 51 -114 -24 -265 -145 -320 -256 -28 -56
-31 -72 -27 -128 5 -79 49 -175 106 -231 l40 -38 -28 56 c-53 105 -49 186 13
268 42 55 114 94 199 108 109 19 191 -6 296 -89 l51 -41 28 48 c24 41 28 57
28 127 0 96 -19 142 -91 229 -39 48 -49 66 -49 97 0 36 -1 38 -25 33 -14 -3
-32 -8 -40 -11 -8 -2 -62 -11 -120 -19 -94 -12 -116 -19 -218 -70 -96 -49
-120 -57 -170 -58 -78 -1 -155 38 -239 120 -42 41 -62 55 -57 41z"/>
<path d="M2936 2680 c-31 -72 -34 -230 -6 -322 35 -116 86 -205 154 -273 104
-104 187 -131 310 -100 83 21 112 16 151 -22 32 -32 44 -60 54 -123 l8 -45 21
48 c44 97 129 196 210 244 23 14 42 26 42 28 0 2 -7 32 -16 67 -19 74 -15 183
10 243 16 36 13 35 -67 -41 -92 -88 -165 -135 -262 -170 -226 -82 -457 0 -548
194 -26 57 -30 78 -36 190 l-6 127 -19 -45z"/>
<path d="M3339 2690 c-164 -28 -266 -177 -204 -301 57 -112 172 -159 305 -125
126 33 214 114 345 318 l17 28 -36 -15 c-55 -23 -95 -18 -161 20 -127 74 -179
89 -266 75z m144 -161 c34 -18 73 -35 86 -38 23 -7 21 -9 -27 -40 -67 -43
-143 -71 -191 -71 -102 0 -139 118 -53 164 46 26 115 20 185 -15z"/>
<path d="M3405 1945 c-35 -34 -34 -93 0 -125 35 -33 87 -32 120 1 56 57 20
149 -60 149 -25 0 -44 -8 -60 -25z"/>
</g>
</svg>
