<?xml version="1.0" standalone="no"?>
<!DOCTYPE svg PUBLIC "-//W3C//DTD SVG 20010904//EN"
 "http://www.w3.org/TR/2001/REC-SVG-20010904/DTD/svg10.dtd">
<svg version="1.0" xmlns="http://www.w3.org/2000/svg"
 width="2062.000000pt" height="1258.000000pt" viewBox="0 0 2062.000000 1258.000000"
 preserveAspectRatio="xMidYMid meet">

<g transform="translate(0.000000,1258.000000) scale(0.100000,-0.100000)"
fill="#000000" stroke="none">
<path d="M0 6290 l0 -6290 395 0 c344 0 395 2 395 15 0 10 -10 15 -30 15 -16
0 -33 7 -38 16 -7 12 -19 15 -41 12 -20 -3 -31 0 -31 8 0 6 -15 15 -34 18 -19
4 -39 12 -45 19 -6 8 -15 51 -20 98 -9 83 -9 85 22 152 26 55 37 69 59 74 21
4 28 11 28 29 0 12 5 35 11 51 6 15 12 39 13 53 1 19 7 26 26 28 41 5 69 23
90 59 24 41 27 93 5 93 -8 0 -15 7 -15 16 0 12 6 15 24 10 19 -5 29 0 45 23
26 37 27 57 1 64 -22 6 -24 14 -10 37 8 12 13 13 30 3 17 -12 20 -10 26 14 4
14 2 34 -5 44 -17 28 -14 35 18 49 34 14 96 86 81 95 -17 11 -11 35 10 35 12
0 17 5 14 14 -3 8 1 19 8 25 49 42 68 61 68 70 0 6 10 19 22 30 18 17 19 21 6
26 -18 7 -21 75 -4 87 6 4 32 8 59 8 35 0 47 4 47 15 0 9 -7 18 -15 21 -19 8
-19 30 0 38 8 3 15 14 15 24 0 10 11 34 25 53 19 24 25 44 23 69 -2 28 1 35
15 35 10 0 23 9 29 20 6 11 22 33 35 49 18 22 23 37 19 57 -4 22 2 35 29 64
19 19 35 42 35 49 0 44 33 63 45 26 15 -48 70 -8 79 57 4 32 13 52 25 60 11 7
22 26 26 43 4 17 20 45 36 63 19 20 27 37 22 47 -19 40 -7 78 41 126 41 42 49
47 66 36 35 -21 92 -13 177 24 17 8 44 14 60 14 15 1 46 9 68 20 22 11 47 19
56 20 9 0 22 6 29 14 6 8 26 16 43 18 29 3 32 6 29 34 -3 38 19 60 91 88 38
16 53 27 55 44 2 14 13 24 30 28 33 8 72 42 72 63 0 24 38 81 53 81 8 0 22 19
33 43 10 23 32 54 48 68 l30 26 -16 64 c-9 35 -24 89 -33 119 -30 96 -30 141
-2 202 14 31 31 75 37 99 7 24 21 64 32 87 16 36 23 43 41 38 31 -8 57 20 58
63 1 56 23 104 57 126 17 11 34 28 38 38 3 11 21 25 40 33 20 8 45 31 59 54
14 22 31 40 38 40 7 0 23 7 35 16 18 12 20 19 12 29 -21 25 0 38 51 32 46 -6
49 -5 56 20 3 15 19 38 34 50 15 13 31 33 34 44 5 16 12 19 31 15 35 -9 100
36 108 75 4 21 11 29 26 29 62 0 156 91 143 139 -4 15 -1 21 11 21 9 0 16 -4
16 -10 0 -5 5 -10 10 -10 13 0 13 37 0 45 -20 12 -9 36 20 47 l31 10 -3 71
c-3 67 -2 72 22 84 23 11 29 23 47 103 7 31 49 70 77 71 12 0 60 2 109 4 48 1
88 0 88 -4 1 -3 3 -37 4 -76 3 -74 -5 -95 -37 -95 -29 0 -15 -38 29 -78 41
-36 57 -38 257 -25 l106 6 -1 54 c-1 30 2 58 7 63 5 4 36 19 69 33 46 19 65
23 85 15 35 -13 79 -57 96 -96 11 -28 19 -33 41 -32 45 3 49 1 61 -25 6 -13
23 -27 37 -31 25 -6 39 1 134 66 14 9 30 32 36 51 16 48 52 62 173 69 112 5
127 13 138 70 9 40 62 70 145 82 65 8 77 14 104 44 29 33 31 34 62 22 27 -10
40 -9 80 5 26 9 69 17 96 17 26 0 76 5 111 12 55 10 67 17 87 46 24 35 63 57
86 48 7 -3 18 -17 23 -32 9 -23 14 -26 42 -20 17 3 40 13 49 22 15 14 36 15
141 10 165 -9 174 -11 188 -47 12 -27 16 -29 71 -29 32 0 61 5 64 10 4 6 23
17 43 26 20 8 47 25 60 37 23 21 32 22 300 27 152 3 285 9 294 14 9 4 24 24
33 44 21 46 41 62 77 62 24 0 30 -5 35 -30 5 -25 10 -30 35 -30 16 0 42 7 57
15 16 8 64 17 108 21 85 7 95 3 106 -47 5 -20 20 -32 64 -51 32 -14 75 -29 95
-32 53 -10 83 -36 75 -69 -5 -18 -16 -27 -37 -32 -29 -6 -30 -8 -30 -65 0 -58
-3 -66 -44 -94 -26 -18 -12 -36 29 -36 36 0 45 -12 45 -60 0 -22 12 -39 51
-73 38 -33 50 -50 47 -67 -3 -24 -6 -26 -80 -60 -41 -19 -47 -26 -53 -60 -4
-22 -4 -53 0 -70 11 -48 -5 -58 -78 -53 -76 6 -93 -5 -102 -71 -6 -37 -3 -48
14 -65 12 -12 21 -25 21 -29 0 -11 115 -72 137 -72 10 -1 43 -12 73 -25 l55
-24 18 25 c16 21 27 24 82 24 89 0 126 -39 70 -76 -32 -21 -31 -27 6 -86 l31
-48 56 0 c48 0 59 4 77 25 19 24 21 25 50 9 17 -8 71 -20 120 -25 128 -12 155
-18 161 -34 6 -16 118 -75 142 -75 23 0 166 -52 183 -67 9 -8 22 -33 28 -56 9
-30 21 -48 43 -60 28 -16 30 -21 25 -54 -6 -33 -3 -40 32 -72 21 -20 40 -44
44 -53 7 -21 26 -23 60 -7 19 9 30 7 58 -10 24 -15 51 -21 91 -21 58 0 166
-33 211 -65 12 -8 30 -15 40 -15 23 0 70 -22 127 -60 25 -16 63 -39 85 -50 22
-11 55 -31 74 -45 28 -21 46 -25 98 -25 35 0 74 5 86 11 31 16 72 62 103 114
16 28 33 45 45 45 29 0 26 66 -5 95 -21 19 -24 33 -30 146 -9 154 -2 179 49
179 30 0 39 5 56 35 13 21 32 38 48 41 14 4 31 11 37 15 15 12 125 48 145 49
9 0 23 7 30 16 12 15 31 16 157 10 134 -6 146 -8 196 -36 43 -24 55 -37 64
-68 8 -25 21 -43 39 -53 16 -8 32 -20 36 -26 4 -7 16 -13 25 -13 10 0 36 -10
57 -22 27 -14 68 -24 125 -29 230 -20 263 -26 277 -45 7 -10 25 -23 41 -29 16
-7 27 -19 27 -31 0 -17 10 -19 117 -24 87 -4 121 -9 135 -21 27 -24 117 -43
150 -32 38 13 58 6 71 -22 7 -16 25 -28 51 -35 22 -6 43 -15 46 -20 3 -6 30
-10 58 -10 64 0 165 -25 189 -47 10 -9 42 -18 72 -21 48 -4 62 0 113 29 32 18
74 50 93 71 38 41 93 58 199 62 31 2 86 6 122 11 59 7 72 5 125 -18 32 -14 78
-31 102 -37 36 -9 44 -16 49 -41 7 -37 9 -38 58 -30 33 5 40 10 37 28 -4 27
26 38 49 17 20 -18 124 -15 241 7 l67 13 7 53 c3 29 3 64 0 79 -15 58 21 89
61 53 12 -13 24 -21 26 -18 25 31 57 104 57 128 0 34 14 103 36 172 12 41 12
51 -1 81 -17 41 -7 61 38 77 15 6 29 16 31 23 25 92 40 130 56 141 10 7 26 33
34 57 8 25 27 53 41 63 33 24 32 47 -5 79 -26 23 -30 33 -30 76 0 45 3 53 30
72 40 28 38 46 -9 89 -37 34 -39 40 -34 79 6 41 5 42 -24 42 -33 0 -53 16 -53
42 0 31 30 78 55 88 40 15 56 69 46 153 -5 40 -9 59 -10 44 -1 -22 -9 -31 -41
-45 -30 -13 -46 -28 -63 -61 -26 -53 -40 -60 -64 -31 -27 32 -113 86 -151 93
-48 10 -66 -4 -91 -71 l-21 -60 -71 -16 c-39 -9 -77 -16 -84 -16 -6 0 -24 -14
-39 -31 -28 -31 -28 -31 -116 -27 l-88 3 -44 45 c-24 25 -57 57 -73 71 -17 15
-37 37 -46 49 -18 27 -70 38 -220 47 l-96 5 -27 -34 c-14 -19 -26 -44 -26 -55
0 -40 -32 -54 -138 -60 -113 -7 -122 -3 -206 79 -42 42 -54 48 -90 48 -31 0
-51 7 -75 28 -53 43 -78 67 -82 81 -3 7 -24 12 -57 13 -50 0 -82 15 -82 39 0
6 -16 17 -36 25 -36 15 -64 60 -64 104 0 11 -18 55 -40 97 -40 78 -40 78 -40
196 l0 117 -24 0 c-15 0 -33 -11 -45 -27 -19 -24 -24 -25 -46 -13 -13 7 -26
19 -29 26 -6 16 19 44 40 44 9 0 14 10 14 28 0 16 7 37 15 48 25 33 19 54 -17
55 -68 2 -82 7 -115 43 -26 28 -32 42 -27 59 11 36 45 75 70 81 13 4 24 11 24
16 0 14 80 90 95 90 7 0 18 7 25 15 11 13 5 15 -46 15 -54 0 -61 -2 -79 -30
-11 -16 -24 -30 -30 -30 -38 2 -130 32 -138 45 -7 13 -17 15 -42 11 -32 -6
-61 10 -33 18 51 16 68 15 86 -4 25 -27 133 -51 140 -31 2 7 14 23 25 34 17
17 29 19 98 14 50 -3 79 -1 79 5 0 35 37 82 77 99 24 10 51 26 59 34 11 11 37
15 92 15 122 0 160 19 82 40 -22 6 -45 20 -51 31 -9 17 -17 20 -46 16 -47 -8
-61 0 -69 38 -8 44 16 87 63 116 21 12 39 23 39 23 1 1 5 12 9 25 l7 24 -73
-5 c-89 -6 -99 -4 -99 28 0 20 -5 24 -29 24 -55 0 -66 56 -13 62 25 3 28 8 35
62 10 71 30 104 74 122 17 8 40 26 50 40 10 15 30 38 46 53 22 21 27 34 27 74
0 34 -6 57 -20 74 -26 33 -27 120 -3 199 21 65 38 78 108 75 60 -2 85 -9 85
-23 0 -7 -21 -9 -62 -6 -35 3 -69 4 -76 1 -24 -9 -42 -74 -42 -152 0 -64 3
-79 20 -94 16 -13 20 -29 20 -74 0 -66 -5 -77 -38 -87 -14 -5 -25 -18 -29 -36
-6 -34 -28 -55 -63 -63 -15 -4 -34 -22 -47 -46 -26 -46 -31 -111 -9 -111 8 0
17 -8 21 -19 6 -21 -3 -51 -16 -51 -5 0 -9 -7 -9 -16 0 -13 9 -14 58 -9 31 3
67 8 80 11 14 3 25 -1 28 -10 7 -19 -14 -96 -27 -96 -5 0 -14 -12 -19 -26 -8
-21 -15 -25 -34 -20 -26 6 -36 -7 -36 -49 0 -19 6 -23 47 -28 32 -3 53 -12 65
-27 9 -12 33 -26 52 -31 21 -6 37 -18 41 -30 12 -37 -14 -50 -116 -55 -73 -5
-106 -12 -146 -32 -70 -33 -85 -58 -81 -130 l3 -57 47 -3 c29 -2 56 3 70 11
16 10 68 17 161 22 l138 7 13 33 c10 23 24 36 50 45 46 15 46 30 1 30 -19 0
-35 -4 -35 -9 0 -17 -33 -22 -68 -10 -33 11 -34 12 -28 53 11 68 17 70 194 73
116 2 167 0 197 -11 70 -25 134 -26 182 -4 24 11 45 29 49 41 11 36 34 55 88
73 28 10 71 28 95 41 24 12 52 23 61 23 10 0 61 16 114 35 l97 35 174 -8 c157
-7 177 -10 204 -30 17 -12 36 -22 43 -22 7 0 30 -9 51 -20 20 -11 48 -20 63
-20 14 0 44 -9 67 -19 24 -11 55 -23 70 -26 15 -4 34 -19 41 -33 12 -24 20
-26 82 -29 82 -3 118 -16 133 -49 10 -23 17 -25 74 -25 34 0 128 -5 210 -11
116 -9 159 -8 201 2 30 7 70 10 92 6 111 -19 192 -18 258 3 36 12 69 21 74 21
5 0 28 18 52 40 41 37 42 41 31 69 -20 46 -11 74 30 93 60 28 66 42 36 86 -14
20 -33 61 -43 91 -12 38 -25 58 -45 70 -15 8 -31 29 -36 45 -7 23 -16 32 -41
37 -18 4 -41 14 -52 24 -10 9 -23 14 -29 11 -11 -7 -79 8 -116 25 -11 6 -33 9
-50 8 -16 -1 -51 8 -77 19 -35 16 -48 27 -52 49 -4 18 -27 47 -57 74 -28 24
-62 61 -75 82 -17 25 -32 37 -48 37 -13 0 -36 13 -53 29 -16 15 -52 36 -79 46
-27 10 -65 31 -84 45 -19 15 -46 31 -60 35 -14 4 -30 12 -37 17 -6 5 -27 6
-45 3 -31 -6 -36 -3 -73 44 -34 44 -44 50 -65 45 -63 -16 -151 -16 -175 0 -16
10 -47 16 -88 16 -36 0 -68 5 -75 12 -10 10 -19 6 -43 -20 -26 -28 -37 -32
-80 -32 -42 0 -52 -3 -56 -19 -5 -19 -49 -41 -82 -41 -9 0 -29 -7 -45 -15 -15
-8 -51 -15 -79 -15 -37 0 -56 -5 -72 -20 -44 -42 -73 -5 -82 103 -6 76 -18 97
-59 97 -12 0 -29 -11 -38 -25 -14 -21 -24 -25 -64 -25 -61 0 -92 9 -92 26 0
18 18 27 65 34 l40 5 5 62 c7 81 28 104 126 133 40 12 74 25 74 30 0 17 40 21
62 6 12 -9 30 -16 40 -16 22 0 151 -52 172 -69 9 -8 16 -19 16 -27 0 -7 9 -16
20 -19 11 -4 28 -17 36 -31 15 -21 23 -24 73 -22 31 1 67 8 81 15 14 7 59 13
100 13 l76 0 9 -32 c9 -28 14 -33 40 -31 45 2 106 18 140 37 17 9 40 16 53 16
18 0 22 6 22 30 0 39 24 87 47 95 18 6 63 68 63 86 0 5 -7 21 -16 34 -12 19
-25 25 -53 25 -49 0 -63 12 -59 46 3 27 6 29 59 34 47 4 65 12 114 50 31 25
73 56 91 70 27 20 34 31 32 55 -3 26 -7 30 -28 27 -14 -1 -44 -12 -67 -23 -31
-15 -43 -27 -43 -43 0 -12 -4 -26 -9 -32 -5 -5 -11 -20 -13 -34 -3 -24 -6 -25
-63 -22 -37 2 -72 11 -91 23 -37 22 -72 24 -97 5 -18 -14 -17 -14 2 -21 35
-11 54 -35 40 -51 -17 -21 -50 -17 -56 6 -7 25 -31 26 -49 3 -11 -16 -32 -18
-164 -19 -97 -1 -156 -6 -163 -13 -6 -6 -18 -11 -28 -11 -9 0 -28 -9 -42 -20
-14 -11 -31 -20 -38 -20 -7 0 -23 -12 -34 -26 -16 -21 -28 -25 -60 -24 -165 7
-262 2 -306 -18 -26 -11 -50 -25 -53 -31 -4 -6 -39 -11 -82 -11 -66 0 -76 3
-95 24 -12 13 -32 27 -46 31 -21 5 -24 10 -19 31 4 15 1 33 -8 46 -12 16 -12
26 -4 42 8 15 8 21 -2 24 -6 2 -27 18 -46 35 -37 32 -30 33 -106 -9 -16 -8
-28 -22 -28 -30 0 -8 -9 -22 -20 -31 -11 -10 -20 -26 -20 -36 0 -15 -3 -17
-13 -9 -7 6 -37 8 -73 5 -56 -5 -62 -8 -79 -38 -9 -18 -14 -38 -10 -45 9 -15
-13 -40 -37 -40 -34 0 -10 -17 33 -23 48 -6 73 -26 63 -50 -8 -21 -43 -32 -57
-18 -17 17 -74 14 -81 -5 -3 -9 -6 -42 -6 -74 l0 -57 41 -6 c57 -8 76 -39 43
-71 -11 -12 -35 -16 -86 -16 -61 0 -69 2 -58 15 9 10 31 15 72 15 68 0 77 21
14 31 -21 3 -42 12 -47 20 -9 13 -7 81 2 134 3 17 -1 19 -23 17 -19 -2 -28 1
-28 11 0 18 20 27 63 28 23 1 26 3 10 6 -27 5 -49 31 -37 42 5 5 26 14 47 21
28 9 36 15 28 23 -16 16 -13 37 7 44 9 3 29 19 44 35 18 18 37 28 56 28 16 0
50 3 75 6 42 6 46 9 51 39 5 26 17 39 49 58 68 39 80 40 112 11 16 -15 44 -33
62 -40 37 -16 41 -29 16 -56 -16 -18 -15 -19 5 -34 12 -8 22 -24 22 -34 0 -11
10 -31 22 -45 32 -37 106 -34 217 6 69 26 100 32 165 32 45 0 100 -4 123 -8
37 -6 45 -4 65 17 13 14 59 42 103 63 l80 38 123 -2 c67 -1 136 0 152 4 31 7
42 25 15 25 -25 0 -17 20 13 31 15 6 39 17 54 25 35 18 52 18 96 -5 20 -10 57
-21 82 -25 l45 -6 27 56 c24 52 31 58 85 80 78 32 111 32 119 -1 3 -14 3 -36
0 -49 -6 -26 -166 -166 -189 -166 -8 0 -20 -7 -27 -15 -17 -21 31 -85 64 -85
25 0 36 -16 29 -37 -3 -7 -13 -13 -23 -13 -17 0 -70 -52 -70 -68 0 -4 -14 -15
-31 -24 -27 -16 -30 -22 -28 -61 4 -56 -5 -67 -50 -67 -20 0 -41 -4 -46 -9
-16 -16 -118 -51 -147 -51 -27 0 -50 17 -68 51 -9 16 -22 19 -81 19 -66 0 -70
-1 -80 -27 -17 -45 -6 -53 69 -53 44 0 75 -5 88 -15 26 -20 127 -20 144 0 20
24 33 18 89 -41 49 -53 54 -56 77 -44 21 12 27 11 47 -8 13 -12 28 -22 34 -22
6 0 24 -10 40 -23 15 -13 64 -41 108 -62 44 -22 85 -45 90 -51 6 -6 25 -17 43
-24 18 -7 39 -25 47 -41 9 -16 30 -33 50 -40 19 -7 38 -22 41 -33 4 -12 15
-27 25 -34 9 -6 20 -25 24 -42 8 -39 65 -75 105 -67 17 4 52 -2 87 -15 32 -11
75 -20 96 -19 25 0 40 -4 43 -14 4 -8 14 -15 24 -15 34 0 49 -11 60 -44 6 -18
22 -39 35 -46 15 -8 31 -31 41 -59 22 -63 39 -100 64 -137 l20 -31 -21 -27
c-11 -14 -26 -26 -34 -26 -7 0 -23 -9 -36 -19 l-24 -19 23 -31 c12 -16 22 -34
22 -38 0 -12 -53 -63 -66 -63 -7 0 -15 -9 -19 -19 -6 -18 -32 -31 -68 -31 -10
0 -37 -9 -59 -20 -31 -15 -62 -20 -124 -20 -46 0 -86 4 -89 10 -9 14 -111 13
-134 -1 -14 -9 -59 -9 -182 0 -90 6 -190 11 -221 10 -53 0 -61 3 -90 34 -26
27 -44 36 -81 41 -27 3 -57 1 -67 -4 -26 -14 -46 -4 -71 36 -12 20 -31 36 -47
40 -15 3 -46 14 -70 25 -27 13 -52 18 -70 14 -21 -4 -33 0 -47 15 -10 11 -25
20 -33 20 -8 0 -34 11 -57 24 -39 23 -51 25 -232 28 -185 3 -192 2 -222 -19
-16 -13 -41 -23 -55 -23 -14 0 -28 -4 -31 -10 -3 -5 -19 -10 -35 -10 -16 0
-50 -11 -76 -25 -26 -14 -54 -25 -63 -25 -30 0 -81 -40 -98 -77 -12 -24 -26
-39 -40 -41 -12 -2 -26 -9 -32 -16 -14 -16 -159 -9 -181 9 -10 8 -63 13 -166
14 -159 1 -176 -3 -189 -47 -9 -30 19 -40 55 -18 41 23 115 21 141 -5 26 -26
20 -43 -17 -47 -16 -2 -33 -8 -38 -13 -6 -5 -22 -9 -36 -9 -21 0 -29 -7 -38
-34 -7 -19 -21 -37 -30 -40 -9 -2 -77 -8 -151 -12 -93 -4 -139 -11 -149 -20
-14 -15 -108 -19 -129 -6 -6 4 -15 20 -18 35 -4 15 -14 27 -22 27 -25 0 -83
-32 -83 -45 0 -8 -9 -16 -20 -20 -11 -3 -25 -18 -32 -33 -7 -14 -23 -29 -35
-32 -21 -5 -63 -50 -63 -67 0 -4 10 -20 23 -35 18 -22 31 -27 77 -29 30 -1 63
1 73 5 9 5 25 5 35 1 15 -6 15 -8 -5 -18 -13 -5 -23 -17 -23 -26 0 -9 -7 -27
-16 -39 -8 -12 -14 -37 -12 -55 3 -29 6 -32 31 -29 52 5 57 -8 57 -151 0 -123
1 -132 25 -163 14 -18 25 -37 25 -42 0 -5 7 -15 15 -22 9 -7 15 -29 15 -50 0
-55 8 -68 51 -90 20 -11 40 -29 44 -40 5 -16 15 -20 48 -20 59 0 85 -9 92 -30
3 -11 28 -35 56 -54 36 -27 59 -36 89 -36 34 0 46 -7 92 -54 29 -29 63 -58 75
-65 12 -6 58 -11 103 -11 73 0 83 3 105 25 14 13 25 30 25 37 0 8 14 30 31 51
30 36 32 37 97 37 67 0 152 -12 232 -34 35 -9 48 -18 59 -43 8 -17 25 -36 38
-42 13 -6 45 -31 72 -56 l48 -45 75 0 c56 0 79 4 89 16 19 23 57 40 125 54 66
13 72 19 94 93 13 41 34 57 78 57 49 0 152 -52 175 -87 13 -20 25 -15 42 17 8
16 33 39 55 50 27 14 40 27 40 41 0 31 19 59 40 59 24 0 29 -17 32 -117 2 -91
-17 -143 -59 -162 -24 -11 -47 -56 -37 -72 3 -5 14 -9 24 -9 34 0 51 -28 45
-74 -6 -38 -4 -43 20 -56 15 -8 33 -27 41 -42 16 -31 8 -57 -27 -91 -26 -25
-27 -103 -1 -112 11 -3 24 -16 30 -30 11 -23 0 -46 -44 -92 -6 -6 -17 -32 -24
-57 -7 -27 -20 -48 -30 -51 -22 -7 -40 -54 -40 -104 0 -42 -14 -61 -45 -61
-11 0 -27 -4 -35 -10 -12 -7 -12 -12 -1 -34 17 -31 17 -82 0 -102 -8 -9 -10
-36 -7 -79 4 -48 2 -67 -8 -76 -8 -6 -14 -21 -14 -33 0 -11 -9 -32 -20 -46
-11 -14 -20 -29 -20 -33 0 -13 -40 -67 -49 -67 -4 0 -18 9 -31 20 -13 11 -23
20 -24 20 -1 0 -2 -39 -3 -86 -1 -48 -7 -92 -14 -100 -7 -8 -30 -14 -58 -14
-25 -1 -64 -7 -86 -15 -22 -8 -74 -15 -115 -15 -42 0 -80 -4 -85 -9 -11 -11
-115 -29 -133 -23 -6 2 -14 19 -18 37 -5 29 -12 35 -54 49 -27 9 -57 16 -68
16 -11 0 -26 7 -33 16 -12 14 -26 15 -99 9 -47 -4 -112 -8 -145 -9 -100 -3
-119 -12 -188 -84 -17 -17 -35 -32 -40 -32 -5 0 -21 -9 -37 -20 -55 -40 -158
-34 -220 11 -20 15 -51 22 -124 27 -54 4 -100 13 -104 19 -4 6 -21 14 -37 18
-57 13 -65 16 -65 29 0 24 -28 40 -45 26 -18 -15 -113 3 -163 31 -26 15 -54
19 -124 19 -92 0 -148 18 -148 47 0 7 -7 13 -15 13 -8 0 -25 11 -37 25 -19 22
-29 25 -93 25 -39 0 -75 4 -80 9 -6 5 -46 11 -90 13 -56 2 -92 9 -120 24 -22
12 -57 24 -77 28 -21 4 -41 12 -45 19 -5 7 -17 17 -27 23 -11 6 -26 29 -34 52
-10 30 -23 47 -45 59 -18 9 -34 19 -37 24 -3 4 -68 11 -144 16 -125 9 -142 8
-174 -9 -20 -10 -44 -18 -53 -18 -21 0 -86 -27 -93 -39 -3 -4 -23 -11 -45 -15
-33 -5 -43 -13 -63 -48 -22 -39 -27 -43 -57 -40 l-34 2 7 -137 c4 -76 12 -140
17 -141 28 -11 39 -37 39 -95 0 -77 -11 -97 -41 -79 -11 7 -22 12 -23 10 -24
-37 -76 -99 -100 -120 -28 -25 -39 -27 -109 -28 -80 0 -100 6 -154 52 -17 14
-42 29 -55 33 -13 4 -31 16 -41 26 -10 11 -26 19 -36 19 -10 0 -26 9 -36 20
-9 10 -43 27 -74 36 -30 9 -68 24 -82 35 -15 10 -39 19 -52 19 -14 0 -29 4
-32 10 -3 5 -37 10 -74 10 -41 0 -80 6 -97 15 -18 9 -42 12 -70 8 -36 -5 -45
-2 -61 17 -10 13 -30 36 -45 52 -36 37 -59 83 -52 101 5 14 -20 47 -36 47 -4
0 -13 19 -18 43 -6 24 -19 51 -29 59 -21 19 -112 53 -163 62 -19 3 -48 13 -65
22 -16 9 -47 25 -67 36 -21 10 -38 22 -38 27 0 11 -82 24 -146 22 -36 -1 -58
4 -75 17 -29 23 -56 20 -76 -7 -12 -18 -25 -21 -81 -21 -37 0 -72 4 -78 8 -20
13 -64 106 -64 134 0 17 8 31 20 38 36 19 21 30 -41 30 l-61 0 7 -30 c10 -43
-15 -48 -65 -11 -23 16 -65 35 -95 41 -29 6 -70 20 -91 30 -21 11 -44 20 -51
20 -6 0 -28 24 -47 54 -30 44 -35 59 -30 87 16 83 63 118 143 104 l39 -6 -1
61 c0 75 21 108 84 131 24 9 45 21 47 27 1 5 -17 29 -42 52 -33 31 -48 54 -54
84 -4 24 -14 42 -22 42 -8 1 -23 2 -33 3 -19 1 -39 43 -31 65 3 8 16 17 30 20
21 6 24 12 24 55 0 64 6 79 41 96 37 20 28 42 -21 55 -81 22 -165 68 -183 101
l-18 32 -71 -6 c-42 -4 -77 -12 -87 -22 -18 -16 -87 -20 -108 -7 -6 4 -16 20
-22 35 -9 23 -14 26 -29 18 -10 -5 -24 -22 -31 -38 -7 -15 -17 -35 -20 -43
-15 -30 -100 -40 -350 -40 l-243 0 -30 -25 c-16 -14 -36 -25 -44 -25 -8 0 -24
-10 -35 -21 -16 -16 -37 -22 -83 -25 -77 -5 -91 0 -106 35 l-11 29 -129 7
c-102 5 -133 4 -156 -8 -16 -8 -44 -17 -63 -21 -28 -5 -37 -2 -63 26 l-29 31
-29 -31 c-15 -17 -31 -45 -35 -62 -9 -39 -44 -61 -52 -32 -4 19 -11 20 -106
15 -56 -3 -106 -9 -112 -13 -20 -15 -77 -20 -98 -8 -18 9 -24 7 -46 -19 -29
-34 -43 -40 -121 -48 -71 -8 -89 -21 -124 -88 -17 -33 -38 -58 -50 -61 -12 -3
-64 -6 -116 -6 -106 0 -133 -11 -145 -57 -7 -30 -42 -73 -59 -73 -5 0 -26 -11
-46 -25 -19 -13 -50 -27 -67 -31 -26 -5 -34 -2 -54 25 -18 24 -30 31 -58 31
-45 0 -58 8 -66 42 -4 15 -25 44 -47 64 -45 41 -73 41 -135 3 -32 -20 -33 -22
-27 -70 4 -31 2 -54 -5 -63 -16 -19 -297 -32 -349 -16 -40 14 -92 56 -92 77 0
7 -9 18 -20 25 -29 19 -25 31 20 50 38 16 39 17 38 67 l0 51 -46 2 c-131 5
-126 6 -154 -24 -28 -29 -35 -48 -40 -103 -2 -22 -9 -31 -25 -33 -28 -4 -36
-31 -28 -92 6 -42 4 -51 -14 -67 -12 -10 -21 -29 -21 -45 0 -43 -18 -78 -45
-88 -14 -5 -25 -16 -25 -23 0 -23 -98 -97 -129 -97 -12 0 -22 -9 -27 -22 -10
-33 -64 -77 -95 -78 -31 0 -109 -72 -109 -100 0 -31 -11 -50 -30 -50 -11 0
-22 5 -25 10 -11 18 -35 10 -41 -14 -4 -16 -19 -29 -45 -39 -21 -8 -42 -24
-45 -34 -9 -26 -64 -73 -85 -73 -11 0 -19 -5 -19 -10 0 -6 -19 -28 -42 -49
-37 -35 -42 -45 -49 -100 -7 -62 -29 -101 -56 -101 -10 0 -12 -6 -8 -21 6 -19
4 -21 -13 -17 -26 7 -42 -15 -71 -102 -12 -36 -26 -75 -32 -86 -14 -27 -6
-123 15 -191 50 -163 50 -187 2 -218 -14 -10 -29 -34 -38 -62 -10 -35 -20 -49
-39 -57 -19 -7 -31 -22 -40 -50 -16 -53 -36 -76 -65 -76 -15 0 -27 -9 -36 -27
-9 -18 -30 -34 -64 -48 -69 -28 -98 -50 -90 -70 11 -29 -12 -52 -76 -75 -35
-12 -76 -28 -93 -35 -16 -7 -48 -16 -70 -20 -22 -4 -53 -13 -70 -20 -52 -23
-131 -37 -170 -29 -33 6 -39 3 -65 -27 -34 -39 -36 -51 -15 -83 16 -25 19 -20
-45 -94 -11 -13 -20 -31 -20 -40 0 -28 -27 -96 -39 -100 -6 -2 -11 -13 -11
-25 0 -12 -4 -27 -8 -32 -12 -17 -60 -45 -77 -45 -8 0 -15 -4 -15 -9 0 -5 -10
-13 -22 -16 -38 -12 -67 -45 -66 -76 1 -29 -25 -79 -42 -79 -6 0 -10 -10 -10
-23 0 -13 -11 -34 -25 -47 -14 -13 -25 -32 -25 -42 0 -10 -9 -26 -20 -35 -15
-13 -20 -30 -21 -73 0 -87 -12 -134 -32 -138 -12 -3 -20 4 -24 17 -9 35 -24
23 -18 -13 6 -29 3 -38 -23 -61 -17 -15 -33 -36 -36 -48 -3 -12 -22 -32 -41
-45 -26 -16 -34 -28 -30 -41 5 -17 -58 -112 -91 -137 -8 -7 -24 -50 -35 -95
-12 -52 -31 -100 -49 -127 -17 -23 -30 -52 -30 -64 0 -40 -43 -108 -86 -135
-49 -31 -74 -69 -74 -112 0 -30 -32 -71 -54 -71 -6 0 -23 -21 -37 -48 -24 -43
-26 -53 -20 -127 7 -92 13 -105 46 -105 45 0 75 18 75 44 0 63 41 102 56 54 4
-13 22 -40 40 -61 19 -20 34 -42 34 -49 0 -6 8 -20 17 -31 17 -18 17 -20 -5
-37 -12 -10 -22 -21 -22 -24 0 -3 3123 -6 6941 -6 l6941 0 -6 53 c-3 28 -8 84
-11 122 -6 73 -27 153 -79 294 -24 66 -38 87 -62 102 -17 11 -45 39 -62 63
-21 29 -41 45 -60 49 -21 4 -32 14 -36 31 -3 13 -15 27 -25 31 -27 8 -45 58
-37 100 10 50 -9 101 -47 126 -49 34 -57 49 -57 107 0 69 -18 130 -40 137 -9
3 -23 26 -31 52 -11 36 -21 49 -39 53 -29 7 -50 42 -50 85 0 17 -6 39 -14 50
-13 19 -28 66 -41 128 -4 22 -9 26 -28 22 -31 -8 -60 26 -82 95 -9 30 -31 76
-47 102 -16 25 -32 62 -35 82 -3 22 -12 38 -23 41 -23 7 -32 44 -24 95 6 34 3
44 -23 73 -16 18 -35 49 -43 68 -8 18 -25 49 -37 68 -13 19 -23 45 -23 59 0
40 -32 102 -57 108 -32 9 -102 123 -135 219 -15 44 -27 88 -27 97 -1 9 -10 19
-21 23 -24 8 -37 67 -21 101 16 36 14 44 -13 44 -27 0 -53 24 -36 35 5 3 10
17 10 31 0 33 33 32 84 -2 l38 -26 -7 -57 c-10 -85 19 -142 97 -193 19 -13 27
-28 32 -65 8 -61 22 -78 67 -87 29 -5 39 -13 50 -39 7 -17 26 -51 43 -75 25
-36 28 -46 18 -60 -23 -32 -25 -44 -9 -59 18 -19 52 -10 43 12 -6 17 21 48 38
42 7 -2 15 23 23 66 6 39 21 83 33 98 17 24 18 32 8 48 -12 19 -10 26 30 171
11 37 49 40 58 3 4 -15 10 -32 14 -38 30 -41 36 -259 8 -292 -16 -20 9 -43 48
-43 43 0 76 -31 98 -91 13 -36 24 -50 49 -60 40 -16 47 -26 47 -69 0 -57 11
-80 44 -97 17 -9 52 -34 78 -57 43 -37 47 -44 42 -73 -5 -28 -3 -33 20 -39 19
-4 28 -16 36 -43 5 -20 10 -42 10 -48 0 -7 4 -13 9 -13 5 0 16 -19 24 -43 15
-46 48 -86 83 -105 13 -7 26 -29 34 -59 18 -66 58 -153 70 -153 17 0 32 -50
33 -110 l2 -55 80 -1 c119 -2 113 0 125 -45 10 -35 18 -44 50 -57 34 -13 42
-22 61 -71 11 -31 26 -63 33 -71 8 -8 17 -28 20 -45 4 -16 11 -32 15 -35 4 -3
29 -48 55 -100 l48 -94 3 -178 c2 -140 6 -182 18 -201 8 -13 22 -46 30 -73 33
-108 59 -135 184 -195 40 -19 75 -42 78 -51 6 -17 124 -18 2280 -18 2157 0
2274 1 2279 18 2 9 8 32 11 50 11 56 78 66 118 18 17 -21 18 -21 32 -2 8 11
21 44 30 75 28 104 29 106 62 115 18 6 36 20 43 34 9 21 15 23 47 17 l36 -6
-6 46 c-8 52 4 76 70 146 l34 36 -16 56 c-18 63 -26 71 -80 89 -30 10 -43 22
-59 55 -15 29 -27 42 -42 43 -27 0 -54 40 -61 88 -7 47 -20 72 -37 72 -17 0
-52 39 -61 68 -6 20 -11 23 -33 17 -15 -4 -59 -9 -99 -12 -64 -4 -74 -2 -90
16 -9 12 -22 21 -29 21 -6 0 -31 20 -57 45 -37 37 -50 45 -70 40 -25 -7 -48 9
-67 45 -5 9 -29 22 -53 28 -39 10 -45 16 -65 64 -27 66 -28 94 -2 108 42 23 6
119 -52 139 -40 14 -34 35 17 65 51 30 54 39 25 64 -12 9 -28 41 -36 70 -9 29
-21 55 -27 57 -7 2 -24 6 -38 9 -18 4 -29 14 -33 32 -5 18 -12 24 -22 20 -8
-3 -23 -1 -33 6 -19 12 -71 4 -71 -11 0 -5 12 -12 27 -16 36 -9 42 -20 36 -66
-3 -23 -1 -45 6 -53 17 -21 -8 -102 -45 -144 -21 -24 -37 -32 -61 -32 -26 0
-36 -6 -48 -31 -9 -17 -32 -40 -51 -51 -19 -11 -34 -28 -34 -38 0 -34 -27 -50
-75 -43 -52 7 -88 -3 -65 -17 8 -6 25 -10 37 -10 32 0 35 -13 18 -74 -12 -41
-26 -63 -62 -95 -43 -38 -51 -41 -104 -41 -32 0 -61 5 -64 10 -9 14 -312 13
-321 -1 -9 -16 -55 -1 -86 28 -14 14 -31 22 -36 19 -17 -10 -40 4 -46 30 -4
13 -19 30 -35 39 -16 8 -32 23 -36 34 -6 20 9 68 30 91 19 22 15 152 -6 177
-22 24 -49 78 -49 97 0 25 -47 50 -71 40 -26 -12 -68 -107 -69 -155 0 -59 -35
-74 -105 -45 -31 13 -35 19 -35 54 0 44 -45 142 -65 142 -30 0 -45 31 -45 93
0 34 -7 84 -15 112 -15 50 -68 115 -92 115 -8 0 -22 15 -33 33 -10 18 -32 40
-49 50 -19 11 -34 32 -43 59 -12 35 -21 44 -54 55 -43 15 -66 44 -103 132 -21
50 -22 59 -11 107 22 90 -5 138 -85 150 -42 6 -50 11 -75 53 -32 50 -50 144
-33 170 7 12 6 19 -5 27 -18 13 -20 70 -3 87 7 7 37 12 67 12 29 0 54 3 54 8
0 4 7 7 15 7 8 0 15 -7 15 -15 0 -9 -9 -15 -21 -15 -17 0 -20 -4 -15 -22 3
-13 6 -29 6 -35 0 -7 7 -13 15 -13 9 0 20 -11 27 -25 10 -23 12 -23 39 -10 15
8 34 15 42 15 21 0 30 79 11 107 -8 12 -14 30 -14 40 0 10 -9 24 -20 31 -23
14 -26 51 -7 73 14 18 62 49 75 49 6 0 13 -25 17 -57 10 -80 12 -83 57 -83 22
0 49 -5 61 -12 12 -7 36 -12 52 -12 23 -1 30 -6 30 -21 0 -13 -8 -21 -22 -23
-29 -4 -29 -15 2 -46 31 -31 32 -64 3 -76 -17 -7 -6 -9 42 -7 36 2 73 7 82 11
11 5 22 1 32 -11 96 -110 99 -133 21 -161 -29 -10 -28 -10 18 -11 49 -1 87
-25 87 -56 0 -8 3 -15 8 -15 4 0 24 -16 45 -35 37 -34 37 -34 37 -114 l0 -79
29 -7 c16 -3 35 -13 42 -21 8 -10 34 -14 89 -14 92 0 133 -13 148 -45 7 -14
34 -34 71 -51 50 -22 63 -32 69 -58 6 -23 17 -34 48 -45 21 -8 45 -23 52 -33
7 -10 25 -18 40 -18 45 0 106 -21 120 -41 10 -14 26 -19 60 -19 69 0 90 -9
101 -41 9 -27 13 -29 68 -29 32 -1 69 -7 83 -15 38 -22 46 -18 17 9 -29 27
-27 51 4 61 11 4 27 17 35 31 9 13 34 29 56 36 21 6 44 20 49 30 5 10 14 18
20 18 6 0 35 12 65 26 59 28 80 23 86 -19 3 -24 5 -24 88 -26 47 -1 60 -6 88
-32 29 -28 32 -35 32 -92 0 -38 -6 -71 -14 -83 -14 -19 -10 -26 60 -97 l75
-76 67 -3 c64 -3 67 -4 67 -28 0 -24 3 -25 78 -30 61 -4 81 -9 88 -22 9 -16
27 -18 143 -18 73 0 174 3 224 6 l92 7 0 5493 0 5494 -5260 0 -5261 0 -6 -30
c-4 -23 -16 -36 -43 -50 -58 -30 -61 -74 -14 -197 15 -38 24 -82 24 -117 0
-48 3 -56 19 -56 10 0 22 -7 25 -16 10 -26 7 -182 -4 -189 -16 -10 -12 -55 5
-62 9 -3 38 -1 64 4 30 6 57 6 72 0 13 -5 53 -16 89 -23 51 -12 70 -21 91 -47
15 -18 50 -43 78 -57 37 -17 51 -29 49 -41 -3 -19 2 -22 24 -14 7 2 45 6 83 9
97 7 194 29 230 50 17 10 39 33 50 50 26 40 65 54 108 38 19 -7 58 -12 89 -12
48 0 56 3 61 21 9 33 42 20 42 -16 0 -20 6 -31 17 -33 9 -2 21 -16 28 -32 7
-17 24 -33 42 -39 72 -25 119 -7 143 55 9 24 24 48 32 53 9 5 24 28 32 52 20
55 44 61 65 18 9 -18 16 -39 16 -47 0 -8 19 -32 43 -53 37 -33 48 -38 92 -39
71 -1 94 -9 101 -36 10 -40 -11 -54 -79 -54 -54 0 -64 -3 -82 -26 -17 -22 -29
-26 -66 -26 -24 0 -68 -2 -96 -4 -51 -5 -53 -7 -72 -49 -16 -36 -26 -45 -57
-54 -44 -12 -78 -6 -117 22 -25 17 -49 20 -195 23 -161 3 -369 -8 -404 -21 -9
-4 -19 -22 -22 -40 -6 -29 -13 -36 -46 -46 l-38 -12 0 -54 c1 -49 3 -56 27
-66 37 -16 41 -25 41 -88 0 -62 35 -140 71 -160 10 -5 19 -15 19 -23 0 -7 12
-23 26 -35 21 -19 25 -28 20 -54 -3 -17 -15 -39 -26 -49 -11 -10 -20 -25 -20
-32 0 -20 -23 -26 -99 -26 l-67 0 -53 54 c-37 37 -52 60 -47 71 9 25 -51 45
-134 45 -62 0 -73 -3 -92 -25 -12 -14 -28 -25 -35 -25 -7 0 -13 -7 -13 -17 0
-9 -11 -31 -25 -49 -14 -18 -25 -38 -25 -44 0 -6 -6 -21 -12 -33 -7 -12 -17
-53 -23 -91 -10 -70 -11 -71 -65 -96 -12 -6 -15 -25 -13 -86 1 -44 4 -98 8
-120 4 -27 3 -44 -4 -48 -31 -20 2 -47 59 -50 32 -1 36 -40 5 -42 -11 -1 -32
-6 -46 -12 -15 -6 -44 -14 -65 -17 -22 -4 -48 -10 -59 -14 -11 -5 -33 -12 -50
-17 -16 -5 -34 -19 -40 -32 -5 -12 -15 -22 -21 -22 -13 0 -36 -42 -34 -61 1
-8 2 -19 1 -25 -3 -33 -133 -22 -169 14 -12 12 -27 22 -34 22 -6 0 -30 21 -54
46 l-42 46 -90 6 -90 5 -13 -29 c-12 -25 -21 -29 -62 -32 -34 -2 -50 -8 -57
-22 -6 -11 -26 -22 -48 -26 -20 -3 -54 -17 -76 -31 -31 -20 -55 -26 -132 -30
-84 -5 -95 -8 -109 -29 -11 -18 -25 -24 -50 -24 -24 0 -35 -5 -40 -19 -13 -41
-125 -62 -138 -26 -3 7 -21 15 -41 19 -47 9 -120 42 -137 62 -40 49 -196 74
-236 39 -34 -31 -95 -66 -124 -72 -16 -3 -32 -10 -35 -14 -7 -12 -135 -11
-153 0 -8 5 -11 16 -7 29 4 12 0 34 -9 52 -15 29 -18 30 -85 30 -38 0 -71 3
-73 8 -9 15 6 112 17 112 6 0 22 7 35 16 l22 16 -22 24 c-28 30 -33 30 -61 0
-26 -27 -58 -39 -74 -28 -16 10 -44 79 -44 108 0 48 35 137 60 153 14 8 29 21
33 28 4 7 14 13 22 13 8 0 21 14 30 30 11 21 23 30 40 30 22 0 25 4 25 35 0
33 -27 75 -49 75 -11 0 -31 55 -31 87 0 15 9 27 25 35 13 6 28 20 31 32 4 12
15 33 25 48 26 36 25 38 -18 36 -21 0 -49 2 -62 7 -16 5 -26 3 -32 -6 -13 -21
-11 -25 16 -37 14 -6 25 -19 25 -27 0 -19 -30 -31 -103 -40 l-57 -7 2 -40 c2
-28 -2 -43 -12 -48 -49 -26 -124 -50 -159 -50 -97 0 -115 -32 -82 -143 31
-105 28 -136 -14 -177 -19 -19 -35 -41 -35 -50 0 -9 -5 -21 -12 -28 -24 -24
17 -47 95 -52 68 -5 73 -7 86 -35 8 -16 23 -36 33 -45 17 -13 18 -20 8 -67 -7
-29 -16 -55 -21 -59 -16 -9 -10 -35 13 -53 29 -24 18 -48 -26 -56 -34 -7 -43
-19 -61 -82 -10 -36 -72 -34 -126 3 -30 20 -45 24 -94 21 -49 -3 -61 -8 -77
-30 -18 -24 -26 -27 -82 -27 -34 0 -67 -5 -74 -12 -7 -7 -37 -10 -78 -9 -57 2
-68 0 -81 -18 -8 -12 -24 -21 -37 -21 -27 0 -61 -34 -51 -50 4 -6 18 -15 31
-20 13 -5 28 -20 33 -33 5 -12 16 -29 25 -36 28 -23 19 -60 -26 -106 -45 -48
-85 -63 -118 -45 -18 10 -26 8 -46 -11 -13 -12 -26 -38 -29 -58 -4 -20 -13
-51 -21 -69 -8 -18 -14 -41 -14 -52 0 -20 -17 -36 -28 -26 -3 4 0 21 7 39 7
18 19 60 26 94 8 38 25 77 42 98 31 39 38 41 59 20 23 -22 58 -18 84 10 13 14
29 25 37 25 19 0 16 37 -4 49 -10 5 -17 21 -18 38 0 22 -7 31 -32 42 -17 8
-34 22 -36 32 -6 23 13 59 38 73 11 5 34 19 50 30 20 14 57 24 110 29 204 21
202 21 224 48 18 24 25 25 91 23 56 -1 78 -6 101 -23 17 -13 42 -23 57 -24 22
-2 30 5 49 45 16 33 30 49 48 54 24 6 25 8 10 23 -18 21 -19 38 -1 72 27 52
28 79 4 117 -28 48 -35 52 -83 52 -22 0 -59 9 -82 20 -34 15 -43 24 -43 43 0
37 25 89 54 114 33 29 35 83 6 175 -34 112 -11 142 122 157 40 5 88 17 106 27
27 16 32 24 30 51 -3 43 10 54 73 64 28 5 54 10 56 13 8 8 -54 66 -70 66 -42
0 -64 31 -31 44 29 11 101 6 139 -9 25 -11 51 -14 80 -9 74 11 114 -17 62 -45
-22 -12 -30 -23 -62 -89 -8 -18 -22 -35 -30 -39 -25 -9 -16 -73 11 -73 8 0 19
-9 26 -20 15 -24 34 -26 42 -5 10 26 35 16 44 -17 11 -39 -1 -58 -34 -58 -15
0 -25 -8 -30 -22 -11 -38 -25 -50 -41 -37 -18 15 -25 7 -32 -38 -6 -35 -10
-39 -51 -49 -55 -13 -79 -52 -80 -132 0 -80 28 -116 60 -77 11 13 11 20 0 40
-12 22 -11 28 3 43 9 9 25 27 37 40 16 18 31 22 76 22 34 0 67 -6 84 -16 42
-25 64 -12 57 34 -8 49 2 62 54 74 51 10 47 10 119 2 l55 -6 12 43 c9 34 8 45
-3 56 -15 16 -8 43 12 43 8 0 14 -10 14 -24 0 -17 8 -25 32 -32 19 -6 38 -21
48 -39 19 -35 60 -47 60 -17 0 10 -11 28 -25 40 -21 18 -24 26 -15 42 16 31
32 35 25 7 -5 -20 -2 -27 14 -32 12 -3 24 -18 28 -33 3 -15 14 -38 24 -51 15
-18 17 -33 13 -65 -4 -22 -10 -45 -15 -51 -5 -5 -9 -17 -9 -27 0 -26 45 -23
138 8 42 14 78 27 80 29 2 2 8 23 13 46 6 23 23 57 38 75 16 17 31 38 33 46 4
10 40 14 149 18 l144 5 13 27 c9 19 23 29 46 33 33 7 33 8 39 68 4 34 14 82
23 107 18 49 19 80 9 207 -7 79 -6 83 19 106 17 16 26 35 26 55 0 25 -5 31
-29 37 -36 8 -46 31 -26 61 19 29 39 40 90 49 50 9 120 52 134 82 11 24 13 25
71 27 34 1 34 1 31 44 -3 46 18 82 48 82 9 0 25 7 35 15 11 8 28 15 37 15 24
0 31 14 23 45 -5 19 -12 25 -34 25 -39 0 -60 9 -60 27 0 8 -20 34 -45 58 -36
34 -57 45 -103 54 -75 15 -100 33 -108 79 -3 20 -15 68 -26 105 -23 78 -20
142 8 184 15 22 19 47 19 115 0 55 5 91 12 99 7 7 37 14 68 17 57 5 65 11 40
32 -33 28 -13 60 38 60 12 0 33 9 47 20 31 24 38 24 79 4 41 -20 27 -45 -14
-26 -21 10 -32 8 -63 -8 -20 -11 -42 -20 -49 -20 -15 0 -16 -2 -4 -33 14 -37
-2 -51 -66 -57 l-58 -5 0 -95 c0 -87 -2 -97 -24 -119 -21 -21 -23 -30 -19 -97
3 -44 11 -83 22 -98 9 -14 15 -39 14 -55 -3 -39 16 -59 66 -71 55 -14 106 -37
106 -49 0 -5 16 -15 35 -22 23 -9 38 -22 44 -41 7 -19 17 -28 31 -28 37 0 59
-19 70 -61 10 -35 9 -44 -6 -60 -10 -11 -27 -19 -38 -18 -30 4 -86 -28 -95
-54 -5 -12 -5 -31 -1 -43 14 -35 -4 -49 -59 -47 -41 2 -51 -1 -56 -17 -11 -34
-90 -90 -129 -90 -51 0 -86 -16 -86 -40 0 -11 5 -20 10 -20 19 0 50 -40 50
-65 0 -15 -11 -36 -25 -49 -22 -21 -25 -31 -25 -98 0 -42 5 -79 11 -85 9 -9 9
-23 0 -57 -6 -25 -11 -58 -11 -74 0 -15 -7 -37 -15 -48 -8 -11 -14 -42 -15
-75 0 -62 -9 -75 -55 -81 -20 -2 -31 -9 -33 -23 -8 -42 -19 -45 -168 -45 -86
0 -144 -4 -144 -10 0 -5 -13 -25 -30 -43 -21 -24 -30 -45 -30 -69 0 -43 -34
-78 -76 -78 -16 0 -54 -9 -84 -20 -30 -11 -67 -20 -82 -20 -23 0 -28 -4 -28
-25 0 -36 -28 -44 -52 -15 -21 26 -10 50 23 50 24 0 23 2 -1 47 -22 41 -36 53
-64 53 -11 0 -28 7 -38 17 -21 19 -36 10 -18 -12 7 -8 10 -25 6 -39 -5 -20
-19 -28 -75 -45 -38 -12 -76 -21 -84 -21 -10 0 -17 -11 -19 -32 -4 -41 -34
-51 -47 -15 -15 39 -70 50 -107 22 -10 -8 -36 -15 -57 -15 -35 0 -37 -2 -27
-20 12 -22 5 -60 -11 -60 -6 0 -7 -4 -4 -10 3 -5 22 -10 41 -10 24 0 34 -4 34
-16 0 -12 -9 -15 -42 -12 -38 3 -43 0 -46 -19 -3 -21 1 -23 37 -23 48 0 86
-34 96 -87 6 -32 8 -33 52 -33 78 0 150 29 221 90 46 39 220 10 272 -45 13
-14 32 -25 42 -25 10 0 30 -7 43 -16 23 -15 27 -15 50 0 14 9 33 35 41 56 18
45 41 52 49 15 3 -14 7 -36 10 -50 4 -18 -1 -28 -20 -41 -32 -21 -32 -34 0
-34 16 0 39 13 61 35 21 21 44 35 59 35 14 0 25 4 25 9 0 29 34 41 112 41 65
0 91 5 132 24 29 14 65 28 81 32 17 3 37 15 46 26 10 13 32 22 61 25 36 4 48
11 56 29 15 31 68 40 161 27 68 -10 77 -14 115 -54 55 -57 108 -88 161 -96 44
-6 59 4 49 30 -7 20 -60 29 -84 15 -15 -10 -22 -10 -31 -1 -16 16 -4 43 20 43
12 0 23 11 29 30 13 36 59 53 74 26 10 -18 40 -21 66 -6 34 20 123 50 147 50
55 0 72 27 34 54 -20 13 -21 18 -9 45 7 18 10 44 5 63 -12 59 -17 139 -10 174
5 27 13 38 36 46 36 12 49 35 49 83 0 33 25 106 50 145 5 8 17 28 25 43 9 15
34 46 56 69 l39 41 83 -5 c94 -6 157 -30 157 -61 0 -11 20 -40 44 -64 44 -44
45 -44 108 -41 l63 3 23 45 24 45 -21 16 c-12 10 -21 24 -21 33 0 8 -9 20 -21
26 -11 7 -27 26 -35 43 -9 18 -22 43 -29 57 -8 14 -15 49 -15 78 0 46 -3 54
-25 64 -28 12 -37 35 -39 93 -2 54 8 71 48 85 26 8 35 18 40 41 4 24 15 34 53
51 44 20 65 21 299 21 l252 0 54 -28 c68 -34 124 -30 134 10 3 13 3 28 0 33
-3 5 0 14 7 20 19 16 119 31 164 25 37 -5 45 -2 68 23 22 24 35 29 91 32 85 6
80 25 -9 32 -59 4 -70 9 -102 40 -20 19 -45 52 -56 73 -24 45 -35 47 -44 6 -4
-17 -13 -33 -20 -36 -8 -2 -24 -23 -35 -46 -26 -49 -66 -86 -96 -87 -11 0 -43
7 -71 15 -40 12 -53 21 -63 44 -15 38 -53 51 -143 51 -49 0 -76 5 -87 15 -22
20 -47 10 -66 -26 -8 -16 -27 -35 -43 -44 -16 -8 -31 -20 -33 -26 -2 -7 -36
-16 -78 -20 -40 -5 -78 -13 -84 -19 -5 -5 -41 -10 -79 -10 -57 0 -72 -3 -85
-21 -11 -13 -23 -18 -35 -14 -18 8 -23 40 -7 50 16 10 11 25 -9 25 -10 0 -24
7 -31 15 -7 8 -18 15 -25 15 -7 0 -27 18 -46 39 -29 34 -41 41 -99 52 -36 6
-70 16 -77 21 -8 6 -32 5 -67 -2 -31 -6 -65 -9 -75 -5 -24 7 -35 53 -21 89 12
34 13 166 1 166 -28 0 -41 34 -41 103 0 53 -7 88 -25 132 -14 33 -25 75 -25
93 0 44 24 89 52 98 26 8 38 22 38 47 0 16 -18 17 -249 17 -239 0 -250 -1
-256 -19 -7 -24 -43 -37 -58 -22 -9 9 -6 13 11 17 12 4 22 10 22 15 0 5 -453
9 -1060 9 l-1060 0 0 -34 c0 -49 -36 -106 -66 -106 -14 0 -36 -7 -49 -16 -13
-9 -33 -13 -44 -9 -28 9 -92 -39 -116 -87 -40 -82 -134 -104 -127 -29 2 17 -1
31 -7 31 -8 0 -73 -34 -90 -47 -3 -2 5 -12 17 -23 24 -23 29 -52 10 -67 -14
-11 -54 -22 -111 -30 -41 -6 -42 -7 -52 -65 l-6 -38 43 1 c24 1 81 8 126 16
46 8 86 12 90 9 3 -4 16 4 29 16 26 24 80 29 94 7 13 -21 11 -113 -3 -127 -15
-15 -136 -16 -193 -2 -22 6 -73 7 -114 4 l-73 -7 6 -51 c16 -117 18 -126 33
-126 8 0 27 14 43 32 l29 31 38 -16 c21 -8 52 -20 68 -25 22 -6 31 -16 33 -35
3 -23 -2 -27 -40 -38 -24 -7 -52 -13 -63 -14 -14 0 -24 -12 -35 -43 -15 -44
-12 -52 24 -65 4 -1 9 -36 10 -77 1 -41 6 -82 10 -91 9 -20 -49 -79 -78 -79
-10 0 -34 -9 -52 -21 -48 -30 -46 -65 6 -113 l40 -36 28 20 c36 27 79 19 88
-16 4 -16 13 -24 28 -24 12 0 31 -7 42 -15 13 -10 45 -14 101 -15 71 0 85 3
110 23 65 54 141 97 172 97 l31 0 0 55 c0 49 3 57 24 64 23 9 127 7 177 -4 21
-5 31 0 47 20 18 22 20 36 15 93 -8 107 22 151 91 131 56 -16 63 -72 15 -117
l-30 -28 11 -69 c14 -85 16 -88 44 -70 20 13 25 13 47 -2 13 -9 29 -24 36 -33
10 -12 15 -13 32 -3 40 25 141 -35 141 -84 0 -12 -9 -46 -20 -75 -18 -49 -19
-54 -3 -101 11 -35 25 -55 45 -66 28 -16 38 -39 53 -123 6 -36 8 -38 45 -38
44 0 47 -3 59 -62 5 -24 13 -53 16 -65 4 -13 3 -23 -2 -23 -10 0 -38 66 -45
105 -3 17 -10 20 -49 17 l-46 -3 -7 71 c-7 70 -11 78 -59 117 -8 6 -24 42 -36
78 l-22 66 21 26 c29 37 26 79 -9 114 -16 16 -37 29 -47 29 -25 0 -84 -67 -84
-96 0 -29 -11 -31 -35 -4 -18 20 -18 22 3 65 l22 45 -40 -5 c-50 -6 -65 9 -80
78 -19 93 -16 124 13 155 35 36 35 69 2 78 -47 12 -58 -10 -53 -107 5 -85 5
-87 -24 -118 -18 -20 -36 -30 -46 -27 -33 10 -191 15 -197 6 -3 -5 6 -29 19
-53 32 -56 22 -67 -61 -67 -41 0 -65 -4 -70 -13 -4 -8 -20 -20 -34 -28 -15 -8
-46 -27 -69 -44 -38 -26 -54 -30 -122 -34 -58 -2 -84 1 -102 12 -12 9 -36 17
-52 19 -20 2 -33 12 -42 31 -16 34 -45 35 -60 2 -16 -35 -31 -31 -85 23 -60
60 -68 97 -33 139 14 17 37 34 51 37 13 3 41 16 61 28 33 19 35 24 28 52 -5
17 -8 55 -7 84 1 44 -2 52 -17 52 -33 0 -44 26 -26 64 9 19 16 39 16 45 0 9
18 19 94 50 l29 12 -34 24 c-40 30 -53 31 -76 6 -24 -26 -71 -43 -94 -36 -15
5 -19 16 -19 52 0 56 -19 123 -37 130 -19 8 -16 31 6 43 19 9 94 11 306 7 l90
-2 3 43 c4 54 -16 64 -59 28 -20 -17 -38 -24 -50 -21 -10 3 -46 1 -81 -6 -85
-15 -177 -19 -184 -8 -3 5 -14 9 -25 9 -25 0 -25 30 0 37 13 3 21 17 25 44 7
44 30 59 89 59 33 0 77 23 77 41 0 6 -13 15 -30 20 -37 14 -39 36 -2 51 15 7
47 25 71 42 53 35 74 27 79 -28 4 -42 19 -46 50 -13 30 32 42 68 28 89 -14 23
0 35 24 21 15 -10 23 -8 43 7 15 12 41 20 64 20 21 0 47 7 57 15 11 8 27 15
36 15 20 0 40 40 40 80 l0 30 -3695 0 -3695 0 0 -6290z m9430 6145 c0 -8 -7
-15 -15 -15 -8 0 -15 7 -15 15 0 8 7 15 15 15 8 0 15 -7 15 -15z m-142 -337
c18 -18 15 -46 -8 -75 l-20 -26 -15 36 c-19 46 -19 54 3 66 22 13 26 13 40 -1z
m-2540 -331 c4 -20 -25 -34 -40 -19 -15 15 -1 44 19 40 10 -2 19 -11 21 -21z
m4810 0 c4 -20 -25 -34 -40 -19 -15 15 -1 44 19 40 10 -2 19 -11 21 -21z
m-1268 -8 c11 -18 -22 -90 -40 -86 -8 2 -14 9 -12 16 1 6 -4 22 -13 34 -8 12
-15 30 -15 41 0 16 5 18 37 13 20 -4 40 -11 43 -18z m-3692 -62 c4 -20 -25
-34 -40 -19 -15 15 -1 44 19 40 10 -2 19 -11 21 -21z m3809 -53 c7 -18 -14
-35 -34 -27 -16 6 -17 30 0 36 21 9 27 7 34 -9z m-802 -164 c0 -16 -6 -26 -18
-28 -19 -4 -32 20 -23 44 9 25 41 13 41 -16z m-330 -150 c3 -6 -1 -13 -10 -16
-19 -8 -30 0 -20 15 8 14 22 14 30 1z m-4553 -20 c37 -5 77 -6 89 -1 32 11 89
-8 89 -29 0 -16 -80 -60 -109 -60 -6 0 -8 -12 -4 -30 l6 -30 -70 0 c-69 0 -70
0 -102 -40 -22 -28 -31 -49 -29 -68 4 -32 21 -33 107 -8 81 23 312 24 368 1
49 -19 59 -39 38 -71 -9 -14 -15 -46 -15 -78 0 -63 -16 -86 -60 -86 -40 0 -60
-10 -60 -29 0 -22 -19 -41 -41 -41 -10 0 -24 -12 -31 -27 -9 -19 -24 -30 -50
-36 -36 -8 -38 -11 -38 -48 l0 -39 75 0 c75 0 145 -19 145 -39 0 -6 8 -11 18
-11 21 0 42 -38 42 -74 0 -32 20 -86 42 -115 10 -13 18 -40 19 -60 2 -76 9
-85 76 -97 70 -13 105 -43 125 -109 6 -22 18 -47 25 -57 13 -14 12 -21 -2 -48
-19 -37 -14 -60 15 -60 11 0 29 -9 40 -20 17 -17 20 -33 20 -119 0 -106 10
-130 39 -92 11 15 34 24 75 31 68 11 194 -2 208 -22 10 -13 3 -215 -9 -243 -4
-11 -13 -15 -28 -11 -21 5 -79 -16 -90 -34 -3 -4 2 -10 10 -14 26 -10 17 -36
-14 -42 -17 -4 -32 -12 -35 -20 -3 -8 -19 -14 -35 -14 -42 0 -47 -17 -15 -50
21 -21 35 -27 52 -23 12 3 29 0 37 -7 13 -10 19 -10 34 4 18 16 51 13 51 -5 0
-5 -10 -13 -22 -18 -13 -5 -40 -25 -60 -44 -28 -25 -38 -43 -38 -65 0 -48 -22
-62 -95 -62 -50 0 -68 4 -82 19 -25 27 -105 31 -132 7 -16 -15 -29 -17 -73
-11 -80 10 -87 14 -96 48 -11 41 -38 47 -66 14 -23 -28 -103 -47 -191 -47 -35
0 -57 -5 -65 -15 -9 -11 -34 -15 -96 -15 l-85 0 -57 -61 -58 -62 -94 -8 c-52
-4 -106 -9 -120 -11 -24 -3 -25 -1 -28 58 -2 53 1 66 21 90 13 16 27 39 31 52
4 12 16 26 26 32 17 9 51 70 65 118 3 12 20 29 36 37 16 9 29 19 29 23 0 4 3
17 6 30 6 20 3 22 -34 22 -28 0 -45 -6 -54 -18 -18 -25 -53 -43 -71 -36 -9 3
-18 16 -21 30 -4 14 -14 24 -24 24 -32 0 -45 16 -38 47 9 41 56 72 122 83 88
15 91 16 98 63 10 67 8 76 -14 104 -19 24 -19 28 -5 49 8 13 15 37 15 54 0 32
26 50 74 50 13 0 29 7 36 15 7 8 30 18 50 21 32 5 39 11 44 35 3 16 12 29 20
29 15 0 32 -37 22 -47 -8 -8 24 -43 38 -43 8 0 12 32 12 95 1 102 0 104 -51
85 -18 -7 -31 -6 -45 3 -31 18 -24 33 25 54 l45 20 -45 42 c-25 23 -45 48 -45
56 0 30 20 63 40 68 27 7 21 34 -6 28 -10 -2 -55 -6 -99 -8 -64 -4 -82 -8 -93
-24 -30 -44 -112 -9 -112 49 0 19 -10 35 -34 55 -19 15 -37 27 -40 27 -3 0
-16 4 -30 10 -32 12 -25 35 16 56 27 14 32 13 64 -7 40 -25 52 -20 36 16 -14
29 -7 52 18 60 12 4 19 19 23 53 6 55 -4 72 -33 54 -31 -19 -77 -14 -120 13
-22 14 -40 29 -40 33 0 14 23 32 42 32 28 0 68 22 68 38 0 8 -18 33 -40 54
-44 44 -50 67 -20 75 16 4 20 14 20 48 0 26 -6 47 -15 55 -10 8 -15 31 -15 69
0 66 10 86 38 77 28 -9 47 13 73 84 19 53 27 62 68 82 41 20 102 32 181 36 14
1 55 -3 92 -8z m5644 -1 c24 1 34 -5 42 -24 14 -29 -6 -55 -42 -55 -13 0 -29
-6 -35 -14 -12 -15 -68 -26 -88 -19 -8 3 -13 25 -13 58 0 61 7 67 65 59 22 -3
54 -6 71 -5z m-5406 -24 c0 -8 -7 -15 -15 -15 -8 0 -15 7 -15 15 0 8 7 15 15
15 8 0 15 -7 15 -15z m5805 -16 c8 -24 -12 -69 -31 -69 -24 0 -33 57 -12 78
18 18 36 14 43 -9z m-210 -125 c18 -18 16 -33 -7 -47 -22 -14 -78 10 -78 33 0
32 58 41 85 14z m-1102 -28 c-4 -21 0 -25 49 -36 79 -19 85 -24 98 -86 14 -68
7 -78 -60 -89 -40 -7 -43 -6 -31 9 7 9 21 16 31 16 29 0 42 25 34 64 -7 42 -7
42 -61 51 l-43 7 0 -41 c0 -22 -4 -43 -10 -46 -17 -11 -11 -44 11 -56 26 -13
11 -34 -19 -25 -26 9 -34 42 -20 89 9 29 9 49 -1 86 -12 50 -7 81 14 81 7 0
11 -9 8 -24z m145 -9 c2 -19 -1 -27 -13 -27 -19 0 -30 24 -21 46 9 23 31 11
34 -19z m-5418 -107 c0 -5 -4 -10 -10 -10 -5 0 -10 5 -10 10 0 6 5 10 10 10 6
0 10 -4 10 -10z m5584 -87 c14 -35 -44 -60 -62 -27 -6 11 -17 15 -31 11 -14
-3 -21 0 -21 9 0 7 10 16 23 18 69 15 82 14 91 -11z m-490 0 c11 -27 -16 -46
-47 -34 -30 12 -33 21 -15 39 18 18 55 15 62 -5z m-1244 -168 c0 -8 -7 -15
-15 -15 -8 0 -15 7 -15 15 0 8 7 15 15 15 8 0 15 -7 15 -15z m1600 0 c0 -8 -7
-15 -15 -15 -8 0 -15 7 -15 15 0 8 7 15 15 15 8 0 15 -7 15 -15z m-4510 -90
c0 -8 -7 -15 -15 -15 -8 0 -15 7 -15 15 0 8 7 15 15 15 8 0 15 -7 15 -15z
m2908 -18 c2 -10 -3 -17 -12 -17 -18 0 -29 16 -21 31 9 14 29 6 33 -14z m2050
-20 c4 -20 -25 -34 -40 -19 -15 15 -1 44 19 40 10 -2 19 -11 21 -21z m-5878
-107 c0 -24 -25 -33 -40 -14 -10 11 -10 17 0 28 15 19 40 10 40 -14z m5955
-28 c6 -15 -11 -42 -26 -42 -5 0 -9 11 -9 25 0 16 -6 25 -15 25 -10 0 -15 -10
-15 -30 0 -20 5 -30 15 -30 20 0 19 -39 -1 -47 -22 -8 -35 9 -41 55 -4 32 -1
44 16 61 17 17 25 19 45 9 14 -6 27 -17 31 -26z m-2787 5 c4 -20 -25 -34 -40
-19 -15 15 -1 44 19 40 10 -2 19 -11 21 -21z m-3122 -124 c40 -41 35 -56 -22
-68 -28 -5 -34 -2 -53 28 -28 46 -19 68 32 76 4 0 23 -15 43 -36z m-168 -10
c13 -3 25 -16 29 -32 11 -46 43 -112 51 -107 4 2 14 1 22 -4 11 -7 12 -13 2
-32 -6 -13 -13 -50 -14 -83 -3 -65 1 -62 -100 -82 l-28 -5 -2 -171 -3 -170
-30 -17 c-24 -13 -31 -24 -33 -56 -5 -53 -17 -64 -73 -64 -27 0 -49 -4 -49 -9
0 -5 -29 -39 -64 -75 l-65 -65 -113 8 c-88 6 -115 5 -126 -5 -7 -7 -35 -16
-62 -20 -48 -6 -50 -8 -50 -39 0 -47 -19 -59 -69 -44 -22 6 -43 19 -46 27 -3
8 -20 37 -37 64 l-32 49 -19 -25 c-27 -38 -77 -29 -77 12 0 8 -7 20 -17 27
-28 21 -8 43 51 55 50 10 56 14 56 37 0 30 23 27 28 -4 4 -29 -20 -49 -67 -57
-46 -7 -45 -6 -29 -41 13 -30 24 -32 33 -6 6 20 37 33 51 22 12 -8 66 -78 85
-110 8 -14 25 -27 37 -29 18 -3 22 2 22 22 0 37 33 66 75 66 23 0 41 7 52 20
18 20 46 21 199 5 40 -4 44 -1 118 70 70 67 82 75 117 75 34 0 39 3 39 24 0
44 21 86 46 92 l24 6 0 159 c0 146 2 161 20 179 11 11 26 20 34 20 8 0 29 8
46 18 29 16 31 20 27 62 -7 64 -42 179 -61 199 -14 14 -42 16 -194 14 -100 0
-189 -6 -205 -12 -20 -8 -34 -25 -48 -58 -11 -27 -24 -56 -29 -65 -6 -10 -10
-25 -10 -33 0 -8 -11 -33 -25 -55 l-25 -40 -78 0 c-53 0 -84 5 -98 15 -20 15
-72 20 -90 7 -20 -14 -24 -43 -8 -68 21 -32 12 -80 -23 -116 -25 -26 -25 -29
-12 -64 11 -29 23 -40 59 -53 28 -10 50 -27 60 -44 14 -27 14 -29 -7 -47 -13
-10 -23 -26 -23 -37 0 -33 -38 -83 -63 -83 -13 0 -28 -5 -35 -12 -9 -9 -12 -8
-12 5 0 9 17 26 41 37 35 19 40 25 37 51 -2 23 3 35 22 49 30 23 19 40 -43 64
-34 13 -47 25 -60 54 -23 53 -22 64 13 97 33 32 40 78 14 93 -13 7 -14 15 -5
49 9 33 18 43 43 52 43 15 83 14 98 -4 19 -23 158 -21 167 1 4 10 -1 22 -10
29 -10 7 -17 17 -17 24 0 10 6 13 39 15 14 1 42 47 66 109 17 46 42 57 155 67
84 8 264 4 308 -7z m1201 -12 c23 -14 -3 -39 -34 -33 -41 7 -32 31 15 41 3 0
11 -3 19 -8z m2786 -115 c8 -19 19 -38 25 -41 19 -12 -36 -44 -81 -47 l-44 -3
-3 42 c-6 79 75 117 103 49z m93 -59 c4 -20 -25 -34 -40 -19 -15 15 -1 44 19
40 10 -2 19 -11 21 -21z m-219 -1 c14 -17 4 -46 -15 -46 -18 0 -28 24 -20 45
7 19 20 19 35 1z m-2499 -121 c0 -8 -7 -15 -15 -15 -8 0 -15 7 -15 15 0 8 7
15 15 15 8 0 15 -7 15 -15z m1790 -40 c0 -8 -7 -15 -15 -15 -8 0 -15 7 -15 15
0 8 7 15 15 15 8 0 15 -7 15 -15z m-3870 -160 c0 -8 -7 -15 -15 -15 -8 0 -15
7 -15 15 0 8 7 15 15 15 8 0 15 -7 15 -15z m773 -140 c30 -29 -3 -73 -44 -60
-24 8 -25 51 -1 64 23 14 28 13 45 -4z m2385 -13 c4 -25 22 -31 22 -7 0 21 30
31 40 14 5 -7 4 -21 -1 -31 -6 -10 -7 -23 -4 -28 11 -18 -39 -37 -83 -33 -54
6 -69 30 -48 72 24 46 68 54 74 13z m-2160 -5 c4 -20 -25 -34 -40 -19 -15 15
-1 44 19 40 10 -2 19 -11 21 -21z m76 -43 c8 -21 -3 -42 -25 -49 -40 -13 -68
43 -33 63 21 12 51 4 58 -14z m-1324 -19 c0 -8 -7 -15 -15 -15 -8 0 -15 7 -15
15 0 8 7 15 15 15 8 0 15 -7 15 -15z m1248 -68 c4 -20 -25 -34 -40 -19 -15 15
-1 44 19 40 10 -2 19 -11 21 -21z m2092 3 c0 -11 -6 -20 -13 -20 -19 0 -27 10
-20 26 8 21 33 17 33 -6z m-2155 -31 c8 -24 -1 -39 -25 -39 -42 0 -61 54 -22
63 25 5 41 -3 47 -24z m1991 -7 c14 -21 1 -62 -20 -62 -18 0 -30 33 -21 60 8
25 27 26 41 2z m122 -27 c15 -32 15 -72 1 -80 -5 -4 -14 -18 -20 -32 -6 -16
-15 -23 -27 -21 -24 5 -28 71 -6 120 20 44 36 48 52 13z m-224 -111 c20 -19
20 -19 -1 -39 -16 -16 -15 -18 8 -36 14 -11 41 -19 66 -19 47 0 93 -15 93 -30
0 -9 -39 -7 -125 6 -17 2 -43 15 -58 29 -22 21 -25 30 -17 45 14 27 13 30 -14
30 -25 0 -36 -16 -36 -54 0 -36 -19 -46 -91 -46 l-68 0 -26 -56 c-19 -40 -34
-58 -55 -65 -19 -7 -30 -19 -33 -38 -5 -22 -16 -32 -49 -44 -24 -10 -49 -17
-56 -17 -14 0 -19 -23 -25 -115 -5 -72 -3 -68 -70 -119 -10 -7 -39 -16 -65
-20 -52 -7 -87 -29 -105 -66 -8 -15 -25 -27 -45 -31 -18 -4 -41 -14 -51 -23
-24 -22 -30 -20 -24 5 4 13 23 28 49 39 23 10 48 28 54 40 12 23 78 55 135 66
19 3 49 19 65 34 26 25 30 35 30 84 0 76 21 124 57 131 47 11 71 26 78 52 3
13 16 28 28 34 12 6 36 36 52 67 17 31 35 60 40 64 6 4 38 8 72 8 l63 0 15 38
c25 60 74 81 109 46z m-424 -19 c0 -8 -7 -15 -15 -15 -8 0 -15 7 -15 15 0 8 7
15 15 15 8 0 15 -7 15 -15z m-2540 -123 c0 -13 -12 -22 -22 -16 -10 6 -1 24
13 24 5 0 9 -4 9 -8z m1838 -478 c15 -4 25 -17 29 -36 8 -38 29 -48 104 -48
67 0 132 -18 126 -35 -4 -11 -12 -10 -122 3 -89 12 -121 27 -134 64 -9 26 -14
29 -48 26 l-38 -3 4 -65 c3 -53 8 -69 27 -87 30 -27 30 -27 -2 -56 -22 -21
-24 -26 -13 -50 9 -21 9 -30 -1 -42 -11 -14 -16 -14 -35 -1 -24 16 -225 25
-262 12 -16 -6 -27 -2 -44 18 -21 24 -28 26 -111 26 -76 0 -95 -4 -138 -26
l-50 -26 0 -74 c0 -83 9 -94 76 -94 24 0 46 -7 59 -20 16 -15 41 -22 91 -26
100 -8 131 -20 142 -53 8 -21 19 -30 45 -35 62 -12 89 -61 93 -170 2 -43 8
-84 14 -92 6 -7 31 -19 56 -28 26 -9 64 -35 94 -64 42 -41 51 -57 56 -96 4
-26 11 -49 15 -52 5 -3 9 -17 9 -31 0 -14 13 -40 30 -59 57 -66 47 -154 -15
-126 -14 6 -33 25 -43 41 l-18 29 -22 -25 c-17 -20 -22 -37 -22 -85 0 -32 5
-68 11 -79 13 -26 3 -56 -22 -64 -16 -6 -19 -16 -19 -77 0 -93 -25 -164 -61
-177 -20 -7 -32 -6 -46 4 -26 21 -29 19 -42 -24 -6 -22 -19 -42 -29 -45 -9 -3
-85 -8 -168 -12 -108 -4 -153 -3 -158 5 -5 8 -66 9 -220 5 -220 -7 -266 -4
-266 21 0 26 -39 37 -107 30 -35 -4 -129 -3 -210 1 -124 6 -148 10 -162 25
-23 28 -120 27 -144 -1 -9 -11 -26 -20 -37 -20 -14 0 -24 -10 -31 -28 -8 -23
-20 -31 -67 -46 -70 -21 -142 -55 -142 -66 0 -5 8 -11 19 -15 24 -7 51 -76 58
-145 5 -55 4 -55 -42 -103 -35 -36 -44 -52 -36 -60 6 -6 11 -25 11 -41 0 -41
21 -98 43 -120 24 -25 24 -134 -1 -167 -38 -51 -72 -161 -72 -236 0 -73 -7
-88 -45 -95 -16 -3 -21 -12 -23 -55 -3 -46 -7 -56 -38 -81 -25 -21 -37 -39
-39 -63 -2 -19 -9 -52 -14 -74 -14 -53 -14 -55 7 -55 10 0 36 22 58 50 21 27
46 49 55 50 8 0 27 -13 42 -28 22 -23 27 -37 27 -79 0 -33 -5 -55 -15 -63 -8
-7 -15 -25 -15 -41 0 -15 -7 -32 -15 -37 -19 -10 -10 -42 11 -42 16 0 17 -23
4 -103 -5 -32 -6 -87 -3 -122 l6 -64 221 -5 c314 -7 322 -8 348 -34 22 -22 22
-22 4 -56 -18 -33 -18 -37 -1 -93 10 -32 21 -62 25 -66 4 -4 20 6 37 23 29 29
34 31 117 33 74 2 90 5 102 21 12 16 25 19 84 18 l70 -1 0 29 c0 20 7 33 23
42 24 13 148 19 368 18 125 -1 140 1 177 22 38 21 92 86 92 109 0 5 11 15 25
21 14 6 25 15 25 19 0 8 121 69 138 69 5 0 12 14 16 32 8 43 23 58 57 58 26 0
30 5 40 46 13 50 51 93 108 122 65 32 67 135 5 190 -30 26 -33 34 -25 51 6 11
11 40 11 65 0 52 8 76 24 76 8 0 10 -24 7 -81 -3 -70 -1 -83 17 -102 30 -32
43 -98 29 -155 -10 -39 -18 -50 -48 -64 -55 -26 -95 -71 -108 -122 -11 -44
-17 -50 -52 -47 -20 2 -34 -15 -43 -51 -6 -26 -81 -78 -112 -78 -8 0 -22 -8
-32 -17 -9 -10 -30 -26 -45 -36 -15 -9 -27 -26 -27 -36 0 -25 -50 -81 -72 -81
-9 0 -20 -9 -23 -20 -12 -39 -34 -50 -96 -50 -46 0 -63 4 -80 21 -18 18 -28
20 -97 14 -42 -3 -119 -7 -171 -8 -65 -1 -96 -6 -98 -14 -3 -7 0 -13 5 -13 6
0 18 -7 27 -16 13 -13 13 -19 3 -31 -9 -11 -30 -14 -77 -12 -102 3 -121 1
-121 -16 0 -16 -2 -16 -129 -20 -49 -2 -68 -7 -80 -22 -9 -10 -28 -25 -44 -33
-24 -12 -29 -12 -42 6 -14 19 -28 57 -44 120 -5 20 -4 42 4 61 18 42 7 53 -51
53 -27 1 -154 3 -281 6 -196 4 -233 2 -233 -9 0 -22 -27 -39 -50 -32 -28 9
-25 43 5 57 29 13 34 36 34 146 0 46 3 92 6 103 4 11 0 25 -9 35 -18 17 -22
69 -6 79 6 3 10 21 10 40 0 18 7 40 15 49 19 19 20 90 1 105 -19 16 -44 0 -73
-44 -24 -36 -68 -50 -108 -35 -28 11 -32 26 -11 49 17 20 36 77 36 107 0 12
16 41 35 64 23 27 35 53 36 73 1 45 11 66 39 80 22 11 25 20 28 73 3 61 3 61
-28 67 -32 7 -38 24 -20 58 13 23 48 25 56 4 10 -26 31 1 44 55 6 27 18 54 26
61 19 16 19 122 0 138 -14 12 -26 50 -49 159 l-11 53 44 40 43 39 -5 65 c-7
75 -23 106 -43 78 -7 -10 -19 -14 -29 -10 -15 6 -17 14 -11 50 10 56 16 62 93
88 95 31 119 45 126 73 4 17 15 26 35 31 16 3 37 15 47 26 26 29 135 28 163
-2 20 -21 60 -24 443 -29 9 0 28 -12 42 -27 l24 -26 212 6 c136 3 222 2 241
-5 20 -7 81 -8 174 -3 l144 7 14 42 c15 45 39 57 66 32 44 -40 71 12 71 134 0
85 1 89 27 108 25 18 26 22 15 46 -19 43 -15 129 8 158 11 14 24 38 30 53 15
40 53 31 60 -15 7 -44 17 -60 36 -60 24 0 16 48 -14 80 -19 20 -35 53 -46 97
-26 106 -30 115 -49 127 -14 9 -21 7 -32 -8 -21 -27 -37 -10 -29 31 7 39 -4
53 -47 53 -14 0 -36 11 -49 25 -20 21 -24 40 -31 121 -8 113 -19 129 -101 154
-45 13 -53 19 -53 40 0 24 -4 25 -97 35 -69 7 -101 15 -110 26 -7 9 -35 20
-62 24 -82 11 -80 7 -90 142 l-4 62 66 33 c62 30 75 33 163 33 68 0 101 -4
113 -14 11 -10 51 -15 124 -17 59 -2 126 -6 149 -9 l42 -6 -10 31 c-6 17 -8
42 -3 58 4 15 6 32 4 37 -2 6 -4 24 -6 42 -1 17 -5 36 -9 42 -3 7 -3 25 0 42
9 41 54 58 113 43z m-354 -191 c4 -9 0 -23 -9 -32 -13 -14 -17 -14 -30 0 -19
19 -10 49 15 49 10 0 21 -8 24 -17z m104 -6 c4 -20 -25 -34 -40 -19 -15 15 -1
44 19 40 10 -2 19 -11 21 -21z m12481 -535 c9 -17 30 -19 223 -26 117 -3 227
-10 243 -15 27 -7 30 -12 29 -46 -1 -30 4 -43 21 -57 13 -10 29 -34 35 -52 6
-19 18 -40 26 -46 34 -29 11 -191 -37 -261 -18 -26 -20 -26 -191 -33 -95 -4
-177 -11 -182 -16 -15 -15 12 -162 34 -182 33 -31 23 -46 -42 -67 -31 -10 -41
-10 -62 4 -14 9 -28 25 -31 36 -4 13 -16 19 -36 19 -26 0 -29 -3 -29 -30 0
-23 6 -33 26 -42 14 -7 32 -25 40 -40 10 -19 22 -28 39 -28 26 0 55 -24 55
-45 0 -8 13 -21 29 -30 20 -10 32 -25 36 -47 4 -17 14 -38 21 -46 8 -7 14 -22
14 -32 0 -11 9 -24 20 -30 11 -6 28 -28 38 -48 16 -35 20 -37 74 -42 45 -4 61
-10 73 -28 14 -19 25 -22 83 -22 108 0 142 -27 123 -98 -13 -46 -28 -52 -56
-22 -24 27 -50 27 -35 1 15 -30 12 -134 -5 -157 -8 -10 -15 -29 -15 -41 0 -37
-21 -72 -49 -81 -22 -8 -23 -11 -9 -17 11 -4 33 1 55 12 30 15 45 17 70 10 44
-13 138 39 146 82 8 38 54 70 117 80 45 7 53 5 78 -16 15 -13 33 -28 40 -34 6
-5 12 -26 12 -45 0 -37 36 -84 65 -84 8 0 23 -16 32 -35 16 -33 19 -35 69 -35
49 0 90 -19 81 -38 -2 -4 -9 -19 -16 -34 -11 -22 -11 -29 3 -49 18 -26 6 -49
-26 -49 -24 0 -75 -26 -85 -44 -7 -11 -25 -12 -103 -4 -182 18 -238 20 -259 8
-25 -13 -27 -29 -4 -45 9 -7 14 -19 10 -29 -5 -12 -20 -16 -63 -16 -40 0 -55
-3 -52 -12 3 -8 33 -15 81 -18 42 -4 82 -11 89 -18 7 -7 22 -12 35 -12 16 0
21 -4 17 -15 -8 -20 24 -31 47 -17 28 18 35 15 49 -18 7 -16 23 -36 36 -45 28
-18 30 -37 9 -59 -23 -22 -18 -32 23 -51 44 -21 62 -41 62 -71 0 -13 12 -31
29 -43 l28 -20 7 -187 c5 -129 4 -190 -3 -197 -15 -15 -14 -61 3 -101 11 -26
21 -35 49 -40 29 -5 38 -13 47 -41 23 -71 -18 -103 -118 -91 -31 4 -91 10
-133 14 -42 4 -83 13 -92 21 -15 12 -24 7 -73 -38 l-56 -51 -98 0 c-75 0 -102
4 -114 15 -14 14 -18 14 -41 -1 -33 -22 -71 -12 -79 21 -4 16 -20 31 -44 43
-23 11 -42 29 -51 50 -10 21 -22 32 -35 32 -28 0 -39 9 -53 43 -7 15 -19 27
-26 27 -8 0 -22 9 -32 20 -15 17 -31 20 -95 20 -57 0 -81 4 -90 15 -7 8 -17
15 -22 15 -11 0 -68 40 -86 60 -51 58 -51 139 -1 165 29 15 30 18 27 78 -3 60
-4 62 -33 67 -41 7 -59 44 -39 82 8 15 25 30 39 34 20 5 23 10 18 35 -3 17 0
35 7 44 8 10 14 49 15 102 l1 87 38 32 37 32 -28 49 c-20 35 -33 48 -46 45
-26 -5 -46 15 -53 57 -3 20 -14 43 -24 51 -10 8 -34 40 -53 70 -20 30 -49 69
-66 85 -37 37 -50 85 -27 104 14 12 16 9 16 -23 0 -28 6 -39 28 -53 34 -22 42
-33 42 -60 0 -12 8 -27 18 -32 10 -5 24 -21 32 -36 8 -15 27 -33 43 -41 25
-13 27 -19 21 -49 -7 -40 13 -49 34 -15 7 11 21 20 32 20 16 0 19 -7 18 -49
-1 -35 5 -57 21 -79 13 -19 17 -33 11 -37 -5 -3 -10 -13 -10 -21 0 -9 -13 -27
-30 -40 -28 -24 -29 -30 -28 -93 0 -37 -5 -83 -11 -103 -9 -28 -9 -42 -1 -58
15 -28 -3 -50 -40 -50 -25 0 -40 -15 -40 -40 0 -4 14 -13 31 -20 51 -22 59
-36 59 -106 0 -63 -1 -65 -35 -85 -30 -18 -35 -26 -35 -59 0 -39 31 -90 55
-90 7 0 18 -7 25 -16 18 -20 76 -44 110 -44 20 0 29 6 33 21 3 12 10 18 17 14
6 -4 9 -13 6 -20 -3 -8 7 -15 26 -19 16 -3 42 -15 58 -26 15 -11 33 -20 38
-20 6 0 15 -13 20 -29 6 -18 20 -31 36 -35 14 -3 32 -19 41 -36 8 -16 33 -39
54 -49 21 -11 41 -29 44 -40 7 -29 34 -37 56 -17 22 20 45 20 61 1 9 -11 35
-15 102 -15 l89 0 47 43 c56 52 74 60 99 42 18 -12 52 -17 225 -31 85 -7 97 0
84 51 -5 19 -13 25 -34 25 -40 0 -48 9 -66 73 -14 48 -15 65 -5 94 8 24 9 84
4 200 -6 140 -10 168 -26 184 -24 24 -39 54 -39 78 0 14 -9 23 -27 27 -60 15
-105 73 -68 88 20 7 19 22 -4 45 -10 10 -20 24 -23 31 -3 10 -11 10 -42 0 -32
-10 -40 -10 -47 1 -5 8 -7 19 -5 25 6 17 -65 44 -115 44 -67 0 -120 11 -126
26 -3 8 -2 25 1 39 6 22 12 25 50 25 40 0 44 2 49 30 9 44 73 74 141 66 230
-25 246 -25 292 1 55 31 60 39 43 70 -13 23 -12 27 9 41 33 22 27 32 -22 32
-59 0 -74 7 -92 41 -8 16 -23 29 -33 29 -28 0 -60 42 -73 97 -9 38 -19 54 -43
69 -34 21 -91 20 -116 -2 -8 -8 -21 -14 -27 -14 -7 0 -12 -13 -12 -30 0 -25
-9 -35 -54 -64 -61 -39 -77 -43 -123 -32 -24 5 -37 3 -47 -7 -8 -8 -32 -18
-52 -22 -67 -12 -84 39 -23 71 21 10 29 22 29 42 0 15 7 40 15 56 8 16 15 54
15 87 0 56 -5 65 -34 60 -36 -7 -63 33 -28 42 49 14 92 16 117 7 35 -13 41 -7
27 25 -11 24 -16 25 -89 25 -82 0 -96 4 -106 33 -4 11 -17 17 -39 17 -18 0
-50 5 -70 10 -31 9 -38 16 -44 44 -4 22 -13 36 -25 39 -10 3 -23 18 -29 34 -6
15 -17 40 -25 55 -8 14 -15 33 -15 42 0 9 -11 21 -26 26 -14 6 -29 23 -35 39
-8 22 -18 31 -45 35 -24 5 -38 15 -49 36 -8 16 -24 34 -35 40 -11 6 -20 19
-20 30 0 10 -4 22 -10 25 -15 9 -12 23 10 45 30 30 57 24 101 -20 35 -36 42
-38 64 -28 28 12 30 19 14 35 -17 17 -40 169 -29 197 11 30 26 33 200 41 80 4
152 9 161 11 8 2 25 22 37 43 45 80 23 217 -48 298 -18 20 -30 45 -30 62 l0
28 -151 8 c-133 6 -152 5 -169 -10 -14 -12 -34 -16 -79 -14 -39 2 -66 -2 -76
-11 -13 -11 -23 -11 -45 -3 -19 7 -45 7 -81 1 -67 -12 -89 -24 -89 -47 0 -38
-63 -60 -99 -35 -30 21 -51 11 -51 -25 0 -25 -5 -32 -26 -37 -28 -7 -51 -27
-70 -60 -6 -10 -22 -21 -35 -24 -15 -4 -31 -20 -42 -43 -14 -30 -23 -37 -45
-37 -15 0 -34 -6 -40 -12 -8 -8 -36 -11 -78 -10 l-65 3 3 -33 c2 -28 7 -33 26
-30 23 3 32 -21 11 -34 -8 -5 -6 -10 5 -16 33 -19 12 -48 -34 -48 -11 0 -22
-11 -28 -29 -6 -16 -20 -39 -32 -51 -19 -19 -21 -28 -15 -83 4 -37 13 -65 22
-70 8 -5 18 -19 23 -32 5 -14 20 -26 38 -30 17 -3 36 -14 44 -23 17 -20 58
-143 58 -173 0 -12 7 -36 16 -55 15 -32 18 -33 82 -36 59 -3 67 -5 67 -23 0
-17 -8 -20 -47 -23 -27 -2 -48 -5 -48 -8 0 -3 11 -26 25 -53 16 -32 32 -51 49
-55 15 -4 28 -17 34 -36 12 -33 36 -39 50 -13 6 10 16 14 26 10 23 -9 20 -34
-5 -42 -11 -4 -19 -14 -17 -23 4 -21 59 -51 65 -36 12 33 33 48 66 48 52 0 77
-27 77 -81 0 -48 -16 -58 -26 -15 -12 59 -23 73 -52 70 -22 -2 -29 -10 -36
-40 -10 -38 -32 -50 -42 -24 -3 8 -18 19 -34 26 -15 6 -34 25 -40 41 -7 15
-21 31 -31 34 -10 4 -22 17 -25 30 -3 14 -17 28 -33 33 -19 7 -30 20 -37 43
-6 21 -22 42 -42 54 -21 13 -31 26 -28 38 2 10 -7 44 -20 77 -13 33 -24 70
-24 82 0 25 -28 106 -44 126 -5 8 -26 20 -45 28 -84 33 -130 209 -68 259 7 6
22 26 34 46 18 31 19 43 12 93 -14 89 10 114 96 101 55 -8 119 22 129 59 3 14
16 28 29 32 12 3 43 26 69 50 26 24 52 44 58 44 5 0 10 11 10 24 0 14 10 32
22 40 12 9 23 26 23 38 0 16 6 23 20 23 15 0 20 -7 20 -29 0 -40 27 -56 54
-32 12 11 21 25 21 33 0 17 60 44 115 52 28 4 43 13 51 29 13 26 43 51 61 52
7 0 17 -8 22 -18z m2288 -82 c16 -6 37 -24 46 -40 10 -16 26 -32 36 -35 24 -7
61 -68 61 -99 0 -13 -9 -31 -20 -41 -18 -16 -22 -16 -43 -2 -25 16 -77 12 -89
-7 -13 -18 -9 -53 7 -66 8 -7 15 -26 15 -42 0 -18 11 -43 25 -60 14 -16 25
-33 25 -38 0 -13 -22 -24 -52 -26 -15 -1 -39 -5 -53 -8 -22 -6 -33 0 -64 34
-41 45 -57 50 -66 19 -12 -37 -86 -47 -99 -13 -7 17 3 44 15 44 5 0 9 5 9 10
0 16 -37 12 -43 -4 -3 -8 -22 -18 -41 -22 -30 -5 -36 -11 -36 -31 0 -13 10
-34 23 -47 12 -12 35 -41 50 -65 26 -40 30 -42 46 -27 10 9 22 16 28 16 18 0
121 -48 128 -60 4 -7 18 -9 31 -6 19 5 32 -2 63 -34 28 -29 46 -40 68 -40 91
0 50 -98 -50 -124 -15 -3 -27 -12 -27 -20 0 -7 -7 -19 -15 -26 -12 -10 -20 -9
-40 4 -15 10 -46 16 -84 16 -45 0 -65 5 -78 18 -34 34 -72 52 -111 52 -28 0
-44 6 -60 25 -12 14 -26 25 -31 25 -5 0 -13 9 -16 20 -4 12 -16 30 -28 41 -19
17 -22 31 -22 92 0 65 3 77 34 122 29 42 32 55 27 91 -4 35 -1 46 19 70 14 16
25 34 25 41 0 17 35 26 70 18 26 -6 30 -4 30 14 0 12 9 30 21 42 17 17 29 20
59 15 l37 -6 -1 44 c-1 57 27 97 80 113 50 15 55 15 91 3z m-6933 -187 c13
-33 -26 -47 -43 -15 -7 13 -7 22 1 30 13 13 34 6 42 -15z m221 2 c0 -24 -24
-30 -49 -12 -25 18 -12 39 22 35 19 -2 27 -9 27 -23z m4101 -1 c8 -30 -16 -60
-40 -51 -16 6 -23 57 -9 70 16 16 43 6 49 -19z m-46 -69 c0 -8 -4 -15 -8 -15
-5 0 -13 -10 -19 -22 l-10 -23 -11 22 c-7 12 -9 29 -6 37 8 21 54 21 54 1z
m-3260 -91 c0 -14 -21 -19 -33 -7 -9 9 13 34 24 27 5 -3 9 -12 9 -20z m-8660
1 c0 -8 -7 -15 -15 -15 -8 0 -15 7 -15 15 0 8 7 15 15 15 8 0 15 -7 15 -15z
m3396 -25 c31 -28 52 -40 74 -40 33 0 36 -7 19 -44 -14 -30 -5 -72 17 -80 8
-3 40 -3 70 0 51 6 56 9 61 36 3 15 9 30 13 33 12 7 160 8 167 1 4 -4 10 -28
13 -54 4 -37 9 -47 24 -47 21 0 32 -16 41 -58 3 -16 21 -45 41 -65 34 -36 37
-57 11 -90 -7 -9 -5 -18 7 -30 9 -10 16 -24 16 -30 0 -7 13 -12 29 -12 36 0
83 -17 93 -33 11 -18 -11 -37 -54 -43 -22 -4 -37 -12 -35 -18 5 -16 95 -20
141 -6 33 10 41 9 55 -4 21 -22 4 -49 -35 -56 -25 -4 -29 -10 -32 -43 -4 -48
9 -48 64 3 51 47 72 49 148 16 29 -13 68 -27 85 -31 23 -5 35 -16 46 -41 8
-19 18 -34 23 -34 17 0 51 -41 46 -54 -3 -8 -19 -18 -36 -21 -28 -7 -29 -8
-13 -25 12 -13 34 -20 68 -22 45 -3 54 -7 72 -34 24 -38 108 -78 134 -64 9 4
48 10 86 11 67 2 69 2 78 -25 12 -35 8 -38 -50 -40 -41 -1 -48 -4 -51 -23 -3
-22 41 -128 58 -138 5 -3 16 8 25 25 21 40 50 39 64 -1 15 -43 14 -55 -5 -74
-13 -13 -16 -31 -12 -93 2 -42 9 -86 15 -97 16 -31 35 -87 40 -120 3 -16 15
-39 27 -50 27 -23 46 -74 46 -121 0 -19 4 -34 9 -34 5 0 33 -22 63 -48 29 -27
64 -55 78 -62 14 -7 44 -34 68 -61 23 -26 51 -50 61 -54 10 -3 23 -17 30 -32
10 -23 9 -30 -8 -54 -12 -16 -21 -31 -21 -34 0 -3 37 -5 82 -5 63 0 86 4 100
17 12 11 41 19 82 21 56 4 65 2 95 -24 27 -22 48 -30 99 -35 39 -4 70 -13 76
-21 13 -18 51 -31 91 -32 28 -1 30 -3 28 -40 -3 -44 22 -106 43 -106 22 0 18
80 -6 110 -11 14 -20 33 -20 43 0 9 -11 22 -24 28 -13 6 -29 22 -35 35 -12 27
-26 31 -35 9 -8 -22 -34 -18 -48 6 -7 11 -28 27 -45 34 -24 10 -33 20 -33 38
0 13 -9 32 -20 42 -26 23 -25 47 1 71 14 12 18 25 14 39 -7 20 -21 136 -31
252 -5 53 -3 64 15 82 18 18 28 20 81 14 65 -6 90 4 90 38 0 11 20 39 44 64
35 37 50 45 79 45 22 0 43 7 54 18 30 31 50 32 98 7 25 -14 49 -24 53 -24 24
4 42 -5 75 -35 22 -20 33 -37 27 -41 -17 -10 -44 3 -55 27 -8 18 -18 23 -47
23 -25 0 -43 7 -58 23 -24 25 -58 29 -66 8 -7 -17 -56 -36 -93 -36 -31 0 -91
-70 -91 -106 0 -39 -23 -47 -106 -39 l-76 7 6 -79 c13 -181 18 -218 34 -236
14 -16 14 -20 -6 -47 -27 -36 -28 -56 -2 -72 11 -7 20 -23 20 -35 0 -13 5 -23
10 -23 6 0 19 -9 30 -20 19 -19 22 -19 45 -4 19 12 23 22 19 39 -5 19 0 27 23
39 16 8 34 11 39 8 20 -14 42 -59 49 -100 5 -34 4 -43 -9 -48 -28 -11 -17 -35
23 -51 32 -13 40 -21 41 -42 0 -14 1 -46 3 -71 2 -38 -1 -46 -24 -59 -47 -26
-74 -9 -100 62 -18 52 -28 66 -53 76 -17 7 -41 17 -53 22 -13 5 -23 13 -23 19
0 5 -17 10 -39 10 -44 0 -112 25 -124 46 -5 10 -28 14 -70 14 -50 0 -66 -4
-80 -20 -14 -17 -29 -20 -102 -20 -71 0 -88 3 -105 20 -21 21 -18 45 6 54 22
8 17 25 -11 36 -14 5 -25 16 -25 24 0 8 -17 28 -37 45 -21 17 -42 36 -46 40
-5 5 -17 17 -27 28 -9 10 -37 34 -61 53 -85 68 -99 86 -99 125 0 36 -37 98
-78 132 -13 11 -13 17 -3 36 10 19 8 31 -14 79 -34 75 -45 186 -21 222 18 28
21 62 6 71 -5 3 -12 -5 -16 -19 -6 -26 -26 -39 -46 -31 -18 7 -80 126 -81 156
0 13 2 34 7 47 6 18 4 22 -13 22 -11 0 -32 -5 -45 -12 -21 -9 -29 -8 -44 5
-10 9 -32 22 -48 27 -16 6 -38 25 -49 43 -18 28 -26 32 -65 33 -30 0 -57 9
-82 25 -56 36 -47 69 18 69 29 0 32 16 4 25 -11 4 -27 21 -34 39 -11 27 -21
35 -52 41 -21 3 -50 15 -64 25 -14 9 -39 21 -56 24 -28 6 -36 2 -81 -45 -40
-41 -54 -50 -71 -45 -28 9 -38 49 -25 98 l10 38 -37 0 c-53 0 -98 18 -106 43
-8 24 18 47 53 47 13 0 23 5 23 10 0 6 -24 10 -54 10 -95 0 -151 35 -109 70
21 18 53 65 53 79 0 5 -8 12 -18 15 -10 3 -25 28 -35 57 -14 39 -25 53 -47 61
-29 10 -33 19 -43 98 -1 8 -10 15 -20 14 -9 0 -37 -1 -61 -2 -34 -2 -45 -6
-49 -21 -2 -10 -15 -26 -29 -35 -25 -16 -109 -24 -145 -12 -25 8 -43 52 -36
88 4 20 -1 27 -25 37 -16 7 -42 26 -58 42 -33 35 -44 25 -44 -41 0 -51 -13
-70 -47 -70 -22 0 -23 -3 -23 -79 0 -44 -4 -82 -9 -85 -24 -15 -18 -48 16 -88
19 -23 41 -54 48 -68 10 -19 25 -30 50 -34 23 -5 40 -15 46 -29 6 -12 28 -35
50 -50 21 -16 39 -35 39 -43 0 -8 8 -14 18 -14 29 0 60 -41 68 -90 9 -65 59
-160 101 -195 52 -42 133 -125 133 -136 0 -4 17 -13 39 -19 21 -5 50 -19 64
-30 32 -25 73 -25 127 -1 48 22 66 19 76 -12 5 -15 0 -26 -16 -39 l-22 -18 29
-29 c16 -16 43 -32 61 -36 22 -4 34 -14 38 -31 3 -13 10 -24 16 -24 5 0 46
-17 92 -39 45 -21 96 -42 113 -45 17 -4 38 -15 48 -26 9 -10 32 -21 51 -24 41
-8 68 -45 67 -91 -1 -33 -1 -33 54 -37 57 -5 77 -19 69 -50 -2 -10 0 -21 5
-24 19 -11 10 -44 -12 -44 -12 0 -37 -9 -55 -21 -35 -21 -74 -19 -74 5 0 7
-13 27 -30 44 -32 34 -39 69 -15 78 8 4 15 10 15 16 0 5 -12 0 -26 -11 -15
-12 -41 -21 -58 -21 -20 0 -36 -7 -44 -20 -10 -16 -23 -20 -65 -20 -63 0 -71
-5 -86 -52 -17 -50 0 -105 34 -114 13 -3 29 -3 35 1 17 10 41 -15 35 -36 -3
-10 0 -40 8 -67 8 -26 11 -55 7 -63 -4 -8 -11 -33 -15 -56 -6 -40 -9 -43 -39
-43 -40 0 -56 -15 -56 -54 0 -43 -10 -76 -23 -76 -6 0 -21 9 -33 21 -30 28
-44 17 -44 -35 0 -37 -6 -50 -40 -85 -22 -22 -44 -41 -49 -41 -17 0 -23 41
-16 99 8 64 18 87 52 118 28 27 30 77 8 184 -25 116 -45 162 -82 189 -19 14
-40 37 -49 53 -10 19 -22 27 -42 27 -62 0 -68 5 -149 138 -7 12 -23 22 -35 22
-12 0 -36 16 -54 35 -20 22 -41 35 -57 35 -30 0 -57 24 -57 50 0 16 -12 18
-102 22 -111 5 -202 34 -213 68 -3 9 -16 22 -28 29 -13 7 -31 26 -41 42 -9 16
-30 35 -45 43 -15 8 -32 26 -39 40 -7 15 -20 26 -31 26 -25 0 -71 20 -71 31 0
5 -13 15 -29 24 -23 11 -32 25 -38 57 -7 36 -13 43 -40 50 -17 5 -41 19 -51
33 -25 32 -77 36 -67 5 4 -13 2 -20 -7 -20 -17 0 -44 59 -54 115 -4 22 -18 71
-32 109 -20 57 -22 73 -12 89 9 16 8 23 -8 41 -11 11 -25 38 -32 59 -9 30 -21
43 -54 58 -22 11 -54 28 -71 37 -28 16 -81 19 -216 13 -37 -1 -116 -57 -123
-87 -4 -14 -25 -43 -47 -63 -27 -26 -37 -44 -33 -55 8 -21 -13 -47 -32 -39 -8
3 -24 -4 -35 -16 -17 -18 -31 -21 -98 -21 -84 0 -179 -23 -187 -45 -3 -8 -15
-17 -27 -21 -12 -4 -27 -13 -35 -20 -17 -17 -145 -19 -190 -3 -17 6 -34 20
-38 32 -3 12 -14 31 -24 42 -10 11 -22 32 -25 48 -7 27 -28 36 -40 17 -3 -5
-37 -10 -74 -10 -61 0 -69 -2 -74 -21 -3 -12 -10 -18 -16 -15 -14 9 -40 -6
-96 -54 -25 -22 -55 -40 -65 -40 -11 0 -34 -14 -51 -31 -31 -30 -32 -32 -14
-45 10 -8 24 -14 31 -14 20 0 44 -29 44 -54 0 -12 -9 -39 -20 -61 -11 -21 -25
-54 -31 -74 -7 -20 -23 -46 -35 -58 -13 -12 -24 -30 -24 -41 0 -28 -20 -42
-62 -42 -37 0 -49 -8 -90 -58 -10 -12 -26 -22 -37 -22 -12 0 -21 -9 -25 -24
-6 -23 -9 -23 -69 -19 -58 5 -66 3 -80 -17 -17 -24 -84 -44 -122 -34 -46 12
-125 -95 -111 -151 11 -42 -9 -65 -55 -65 -29 0 -41 -5 -46 -17 -4 -10 -19
-37 -35 -60 -15 -23 -28 -51 -28 -62 0 -25 -18 -37 -26 -17 -7 18 75 185 91
187 5 1 25 0 43 -1 30 -1 33 1 28 18 -11 32 24 123 61 160 30 30 39 33 98 35
57 2 68 6 90 30 22 22 34 27 76 27 36 0 58 6 76 20 14 11 32 20 39 20 7 0 20
13 29 30 11 21 27 32 58 41 23 6 48 13 55 15 7 2 19 19 27 38 8 18 21 36 29
39 8 3 20 25 26 49 7 23 18 51 26 62 8 11 14 32 14 47 0 21 -8 30 -39 44 -22
10 -42 23 -45 30 -9 24 45 85 88 97 23 7 45 18 49 25 4 7 38 35 74 63 64 48
70 50 130 50 34 0 73 4 88 10 20 8 29 6 45 -10 11 -11 20 -25 20 -31 0 -6 14
-33 32 -60 l31 -49 84 0 c83 0 119 11 149 47 19 22 144 53 214 53 53 0 69 4
83 20 9 11 23 20 30 20 8 0 18 14 23 32 6 19 21 38 39 48 20 11 32 28 38 52
16 66 87 98 254 115 42 4 63 0 107 -21 30 -14 57 -30 60 -35 3 -5 22 -12 41
-15 27 -5 36 -13 41 -34 7 -35 18 -60 44 -98 18 -28 19 -34 6 -47 -13 -13 -11
-26 16 -108 50 -152 44 -141 77 -134 23 5 36 0 62 -23 19 -16 46 -32 60 -35
26 -7 49 -42 49 -76 0 -21 71 -81 97 -81 43 0 64 -13 70 -41 3 -17 14 -31 27
-35 27 -8 66 -44 66 -61 0 -7 11 -19 25 -25 13 -6 27 -18 30 -27 12 -38 65
-55 188 -61 121 -5 136 -11 137 -51 0 -10 15 -20 38 -27 21 -7 47 -21 57 -32
9 -10 31 -24 49 -30 20 -7 42 -28 61 -57 17 -26 38 -59 48 -75 14 -20 27 -28
47 -28 41 0 80 -20 86 -44 3 -12 20 -30 37 -41 45 -29 81 -111 101 -230 21
-122 13 -188 -22 -193 -14 -2 -24 -12 -28 -30 -3 -15 -10 -42 -16 -60 -7 -25
-7 -37 2 -45 16 -17 50 27 50 65 0 16 7 43 16 59 15 31 23 32 67 14 13 -6 17
-2 17 16 0 40 23 72 59 84 25 8 37 21 48 48 13 33 13 41 -5 89 -11 29 -26 55
-33 59 -45 20 -55 30 -68 72 -12 40 -12 53 0 99 10 37 21 56 37 63 12 5 22 17
22 27 0 11 13 21 38 27 47 14 65 14 95 0 19 -9 31 -7 62 10 21 11 42 18 47 15
4 -3 11 2 14 11 9 23 -24 55 -57 55 -16 0 -37 9 -48 21 -23 24 -103 64 -152
74 -19 4 -41 13 -49 20 -8 7 -27 15 -42 19 -15 3 -30 15 -33 27 -4 11 -23 28
-43 36 -39 16 -92 68 -92 89 0 7 9 19 21 27 11 8 16 18 11 21 -5 3 -22 -4 -36
-15 -36 -28 -120 -23 -145 9 -9 11 -33 24 -54 28 -21 3 -44 13 -50 21 -7 8
-29 31 -51 51 -99 95 -137 138 -143 160 -3 14 -16 44 -29 66 -13 23 -24 54
-24 69 0 19 -9 36 -27 50 -14 12 -57 52 -94 90 -40 39 -77 67 -89 67 -21 0
-28 7 -82 79 -57 75 -62 89 -49 131 6 21 11 72 11 114 0 75 0 76 -25 76 -44 0
-56 67 -19 105 19 18 85 20 103 3 11 -11 14 -10 18 0 5 14 32 42 40 42 3 0 25
-18 49 -40z m8248 -26 c11 -28 6 -81 -8 -93 -7 -6 -21 -9 -30 -5 -19 7 -23 83
-4 102 17 17 35 15 42 -4z m1480 0 c9 -8 16 -26 16 -40 0 -13 9 -32 21 -42 34
-28 41 -49 23 -66 -18 -18 -76 -21 -105 -6 -16 9 -21 6 -30 -17 -20 -52 -53
-118 -63 -125 -34 -24 -61 50 -40 109 7 21 13 57 14 79 0 36 5 46 37 70 74 58
100 66 127 38z m-260 -50 c27 -10 18 -29 -14 -29 -30 0 -41 19 -17 28 6 3 13
6 14 6 1 1 8 -2 17 -5z m-9026 -277 c4 -20 -25 -34 -40 -19 -15 15 -1 44 19
40 10 -2 19 -11 21 -21z m-177 -420 c-13 -13 -26 -3 -16 12 3 6 11 8 17 5 6
-4 6 -10 -1 -17z m134 -67 c0 -16 -6 -26 -18 -28 -19 -4 -32 20 -23 44 9 25
41 13 41 -16z m-1271 -26 c11 -29 6 -195 -6 -217 -7 -12 -17 -40 -23 -62 -11
-42 -51 -72 -81 -61 -30 11 -47 77 -48 184 -1 108 4 121 49 122 11 0 34 12 50
25 35 29 50 31 59 9z m-4468 -70 c-3 -9 -6 -20 -6 -25 0 -6 -4 -7 -10 -4 -16
10 -12 45 6 45 11 0 14 -5 10 -16z m14884 -29 c0 -8 -7 -15 -15 -15 -8 0 -15
7 -15 15 0 8 7 15 15 15 8 0 15 -7 15 -15z m-142 -48 c4 -20 -25 -34 -40 -19
-15 15 -1 44 19 40 10 -2 19 -11 21 -21z m-8038 -52 c0 -8 -7 -15 -15 -15 -8
0 -15 7 -15 15 0 8 7 15 15 15 8 0 15 -7 15 -15z m2445 -13 c3 -8 -1 -22 -9
-30 -12 -13 -18 -13 -30 -2 -19 15 -20 32 -5 47 14 14 35 7 44 -15z m-4671
-158 c19 -7 21 -30 4 -36 -7 -3 -26 -4 -43 -4 -37 1 -41 27 -5 37 14 4 26 7
27 8 1 1 8 -2 17 -5z m-46 -109 c11 -14 29 -25 40 -25 28 0 75 -19 84 -33 4
-7 8 -42 8 -79 0 -49 -4 -71 -17 -83 -14 -15 -15 -36 -10 -174 l6 -157 -25
-27 c-20 -22 -29 -25 -44 -17 -38 20 -43 18 -151 -67 -23 -18 -51 -33 -64 -33
-43 0 -47 17 -34 166 15 182 7 309 -22 340 -34 36 -28 72 19 116 28 26 51 38
70 38 20 0 35 9 50 30 28 37 63 39 90 5z m2120 -38 c4 -20 -25 -34 -40 -19
-15 15 -1 44 19 40 10 -2 19 -11 21 -21z m1886 17 c32 -12 17 -30 -23 -26 -21
2 -42 -1 -45 -7 -10 -16 -36 -14 -36 3 0 23 70 43 104 30z m-689 -125 c0 -30
-3 -34 -35 -40 -50 -11 -67 8 -46 49 18 34 32 42 61 32 15 -5 20 -16 20 -41z
m810 -94 c0 -22 -31 -33 -47 -17 -17 17 -1 44 24 40 15 -2 23 -10 23 -23z
m-661 -71 c10 -26 7 -51 -8 -63 -30 -25 -66 22 -45 61 12 22 45 24 53 2z m91
-14 c3 -11 3 -29 0 -40 -13 -42 -62 -9 -51 35 8 31 42 34 51 5z m-5023 -57
c52 -17 70 -37 62 -71 -6 -19 -66 -52 -97 -52 -7 0 -30 -9 -51 -21 -77 -41
-113 19 -66 110 19 39 61 64 89 55 8 -3 37 -12 63 -21z m5556 -4 c4 -21 -26
-51 -47 -47 -17 4 -26 31 -17 54 8 21 60 14 64 -7z m-6255 -3 c8 -19 -15 -37
-32 -26 -17 10 -7 40 13 40 7 0 16 -6 19 -14z m-2399 -110 c-7 -19 -45 -19
-51 0 -2 7 4 19 13 29 14 14 19 14 31 2 8 -7 11 -21 7 -31z m2586 -205 c0 -6
-4 -13 -10 -16 -5 -3 -10 1 -10 9 0 9 5 16 10 16 6 0 10 -4 10 -9z m5162 -151
c11 -12 32 -20 51 -20 18 -1 43 -7 57 -15 14 -8 46 -14 71 -15 62 0 62 -1 96
-137 3 -12 -2 -32 -11 -45 -9 -12 -16 -35 -16 -50 0 -14 -7 -33 -15 -42 -8 -8
-15 -26 -15 -40 0 -48 -22 -57 -135 -52 -98 4 -145 16 -145 36 0 5 -11 12 -24
16 -32 8 -56 45 -56 84 0 42 -35 113 -62 125 -57 26 -41 109 27 135 22 8 52
23 65 33 31 23 85 17 112 -13z m-1683 -4 c9 -11 10 -29 2 -72 -10 -53 -22 -73
-44 -74 -4 0 -7 -55 -6 -122 1 -68 -1 -133 -5 -145 -4 -12 -20 -26 -36 -32
-17 -5 -30 -14 -30 -20 0 -14 -36 -24 -60 -16 -12 4 -22 19 -26 40 -4 21 -13
37 -25 40 -16 6 -26 16 -55 63 -1 2 -50 12 -109 22 -59 10 -115 25 -124 33 -9
8 -44 17 -79 19 -34 2 -67 9 -73 15 -16 16 -21 187 -6 208 8 10 39 20 86 26
62 9 76 8 90 -5 14 -13 44 -16 154 -16 134 0 202 9 262 36 40 17 70 17 84 0z
m8451 -71 c0 -8 -7 -15 -15 -15 -8 0 -15 7 -15 15 0 8 7 15 15 15 8 0 15 -7
15 -15z m-10016 -90 c7 -20 -3 -45 -19 -45 -16 0 -29 35 -20 50 9 15 32 12 39
-5z m3014 -2 c13 -27 0 -87 -20 -91 -17 -3 -48 43 -48 71 0 35 53 50 68 20z
m7322 -68 c0 -8 -7 -15 -15 -15 -8 0 -15 7 -15 15 0 8 7 15 15 15 8 0 15 -7
15 -15z m864 -212 c9 -21 -16 -46 -37 -37 -17 6 -23 35 -10 47 12 13 41 7 47
-10z m-15066 -16 c4 -20 -25 -34 -40 -19 -15 15 -1 44 19 40 10 -2 19 -11 21
-21z m800 -190 c4 -20 -25 -34 -40 -19 -15 15 -1 44 19 40 10 -2 19 -11 21
-21z m290 0 c4 -20 -25 -34 -40 -19 -15 15 -1 44 19 40 10 -2 19 -11 21 -21z
m3299 7 c8 -23 -20 -47 -46 -39 -20 6 -28 34 -14 48 12 13 54 7 60 -9z m851 4
c16 -16 15 -53 -2 -67 -22 -19 -66 3 -66 33 0 37 43 59 68 34z m2298 -169 c3
-6 15 -8 25 -6 11 3 43 -3 72 -13 58 -20 123 -24 232 -14 l71 6 42 -42 c46
-44 50 -68 15 -85 -11 -6 -28 -17 -37 -24 -13 -11 -25 -11 -66 -1 -28 7 -66 9
-85 6 -31 -6 -35 -4 -35 14 0 11 5 20 10 20 6 0 10 5 10 12 0 8 -29 9 -105 5
-86 -5 -107 -3 -120 9 -8 9 -15 20 -15 26 0 6 -6 6 -15 -2 -8 -7 -21 -10 -29
-7 -21 8 -32 73 -16 92 15 18 36 20 46 4z m2477 -35 c31 -6 43 -37 32 -81 -11
-45 -23 -53 -86 -53 -54 0 -59 -2 -65 -25 -7 -29 -17 -32 -125 -39 -74 -4 -77
-3 -88 20 -6 14 -11 31 -11 38 0 19 49 71 85 90 17 9 46 28 65 42 31 23 41 25
100 19 36 -3 77 -9 93 -11z m-10110 -248 c7 -19 -18 -40 -38 -32 -15 6 -20 28
-8 39 12 12 41 7 46 -7z m4545 -189 c4 -20 -25 -34 -40 -19 -15 15 -1 44 19
40 10 -2 19 -11 21 -21z m-4530 -10 c4 -20 -25 -34 -40 -19 -15 15 -1 44 19
40 10 -2 19 -11 21 -21z m-334 -13 c25 -9 21 -54 -5 -54 -11 0 -29 -5 -40 -11
-24 -12 -59 -3 -59 16 0 18 48 55 71 55 9 0 24 -3 33 -6z m236 -119 c0 -8 -7
-15 -15 -15 -8 0 -15 7 -15 15 0 8 7 15 15 15 8 0 15 -7 15 -15z m5150 -29 c0
-7 -5 -17 -12 -24 -9 -9 -7 -13 5 -18 40 -15 7 -62 -34 -49 -22 7 -25 43 -4
51 11 5 12 9 2 25 -10 16 -9 21 2 28 17 11 41 3 41 -13z m300 -161 c0 -8 -7
-15 -15 -15 -8 0 -15 7 -15 15 0 8 7 15 15 15 8 0 15 -7 15 -15z m285 -250 c0
-35 -3 -45 -15 -43 -18 4 -24 30 -16 64 11 42 31 28 31 -21z m4043 -68 c4 -20
-25 -34 -40 -19 -15 15 -1 44 19 40 10 -2 19 -11 21 -21z m-480 -70 c4 -20
-25 -34 -40 -19 -15 15 -1 44 19 40 10 -2 19 -11 21 -21z m-10633 -942 c0 -22
-22 -30 -44 -16 -21 14 -5 43 21 39 15 -2 23 -10 23 -23z m-925 -110 c0 -8 -7
-15 -15 -15 -8 0 -15 7 -15 15 0 8 7 15 15 15 8 0 15 -7 15 -15z m428 -378 c4
-20 -25 -34 -40 -19 -15 15 -1 44 19 40 10 -2 19 -11 21 -21z m-218 -237 c0
-5 -4 -10 -10 -10 -5 0 -10 5 -10 10 0 6 5 10 10 10 6 0 10 -4 10 -10z m194
-17 c4 -9 1 -23 -7 -30 -7 -8 -21 -11 -30 -7 -17 6 -23 35 -10 47 12 13 41 7
47 -10z m-374 -168 c0 -8 -9 -15 -20 -15 -11 0 -20 7 -20 15 0 8 9 15 20 15
11 0 20 -7 20 -15z m-112 -308 c4 -20 -25 -34 -40 -19 -15 15 -1 44 19 40 10
-2 19 -11 21 -21z m-180 -169 c13 -18 12 -98 -2 -98 -18 1 -57 71 -51 91 7 22
38 25 53 7z m-105 -381 c3 -8 2 -18 -1 -24 -17 -25 -72 -24 -72 1 0 32 62 51
73 23z m-43 -393 c0 -8 -7 -14 -15 -14 -8 0 -24 -6 -35 -12 -17 -11 -22 -10
-29 1 -16 25 -1 38 40 38 26 0 39 -4 39 -13z"/>
<path d="M4529 11281 c-83 -12 -129 -51 -129 -112 0 -31 -49 -89 -75 -89 -33
0 -43 -66 -15 -92 21 -20 29 -101 11 -112 -15 -9 11 -64 32 -70 16 -4 18 -12
14 -68 l-4 -63 -34 0 c-42 0 -52 -17 -16 -29 20 -7 35 -5 61 9 32 18 35 18 60
1 23 -14 26 -22 21 -51 -3 -19 -7 -50 -10 -69 -3 -19 -12 -39 -20 -46 -9 -7
-12 -22 -9 -39 7 -34 -17 -62 -46 -54 -15 4 -20 0 -20 -16 0 -11 4 -21 9 -21
20 0 41 -33 41 -66 0 -30 3 -34 26 -34 14 0 37 9 51 20 20 16 41 20 99 20 59
0 75 3 83 18 8 14 13 15 28 4 10 -7 30 -18 46 -25 15 -6 27 -16 27 -23 0 -17
-32 -42 -60 -46 -36 -4 -36 -37 0 -75 23 -25 38 -33 65 -33 31 0 36 -4 41 -29
4 -17 12 -32 20 -35 23 -9 16 -35 -11 -42 -19 -5 -25 -14 -31 -50 -3 -25 -4
-62 0 -83 4 -29 1 -44 -12 -61 -21 -26 -57 -21 -67 11 -6 19 -7 19 -36 -2 -17
-12 -33 -18 -36 -15 -3 3 -13 0 -21 -7 -8 -6 -25 -12 -36 -13 -89 -3 -86 -2
-86 -38 0 -19 -7 -42 -16 -51 -15 -15 -15 -17 2 -31 11 -8 27 -19 37 -25 23
-13 22 -24 -9 -54 -20 -20 -24 -32 -19 -54 4 -17 1 -31 -7 -38 -15 -11 -109
-33 -142 -33 -23 0 -66 -37 -66 -57 0 -6 10 -13 23 -17 13 -3 29 -17 35 -31
15 -32 26 -32 49 1 14 20 30 27 64 30 60 6 74 -5 70 -57 -3 -51 -15 -69 -47
-69 -19 0 -24 -5 -24 -24 0 -14 -7 -31 -15 -39 -7 -8 -17 -27 -21 -41 -3 -15
-17 -34 -29 -42 -13 -8 -28 -28 -35 -44 -6 -16 -18 -31 -26 -34 -10 -4 -14
-22 -14 -62 0 -50 2 -55 18 -48 9 4 55 10 101 13 l83 6 56 60 55 59 86 6 c47
3 92 9 100 14 8 5 58 13 111 17 83 6 104 12 144 37 56 36 83 32 102 -14 8 -19
18 -33 22 -32 4 1 20 -2 36 -7 19 -5 46 -2 81 9 74 23 137 21 153 -4 10 -16
23 -20 70 -20 l58 0 13 51 c7 28 19 53 27 56 23 9 16 23 -11 23 -15 0 -35 12
-51 30 -15 16 -35 32 -45 35 -32 10 -23 43 16 59 19 8 35 22 35 30 0 26 124
116 159 116 16 0 21 9 26 53 4 28 5 74 3 102 l-3 50 -50 8 c-73 11 -167 0
-185 -23 -19 -23 -51 -32 -70 -20 -12 7 -16 35 -18 124 l-4 114 -28 5 c-15 4
-35 13 -43 22 -14 13 -14 20 -3 47 11 26 11 37 0 64 -8 18 -14 41 -14 51 -1
10 -13 33 -29 50 -23 28 -37 34 -89 41 -34 5 -65 11 -68 14 -3 3 -10 37 -16
74 -6 38 -17 76 -24 84 -7 8 -20 47 -30 85 -9 39 -18 76 -20 83 -2 6 -12 12
-21 12 -10 0 -26 8 -34 18 -14 16 -36 20 -144 24 -70 3 -131 10 -137 16 -12
12 17 42 41 42 13 0 21 10 25 30 4 23 15 35 40 45 19 8 41 23 48 34 8 11 26
25 41 32 15 7 29 21 33 31 6 21 60 48 94 48 18 0 20 6 20 53 0 28 6 64 14 79
13 25 13 28 -12 44 -23 15 -50 18 -172 17 -146 -1 -221 -12 -247 -39 -20 -19
-29 -18 -53 8 -35 38 -35 63 1 119 34 54 59 69 114 69 26 0 34 5 39 23 3 13
19 28 38 35 32 13 32 14 10 23 -33 13 -197 19 -263 10z m275 -1937 c8 -20 -3
-44 -20 -44 -8 0 -17 -6 -20 -14 -3 -8 -23 -22 -45 -30 -21 -9 -39 -20 -39
-25 0 -14 -37 -23 -60 -16 -26 8 -25 27 5 75 19 30 33 41 62 46 21 4 49 12 63
19 27 14 46 10 54 -11z m-240 -111 c10 -25 -17 -47 -48 -39 -14 3 -26 12 -26
19 0 35 62 52 74 20z m646 -82 c0 -11 -5 -23 -11 -27 -15 -9 -33 12 -26 30 9
23 37 20 37 -3z"/>
<path d="M4705 9316 c-37 -12 -78 -56 -64 -71 9 -9 98 45 110 66 11 21 9 22
-46 5z"/>
<path d="M4830 11280 c0 -5 7 -10 16 -10 8 0 12 5 9 10 -3 6 -10 10 -16 10 -5
0 -9 -4 -9 -10z"/>
<path d="M4285 10420 c-4 -6 5 -10 20 -10 15 0 24 4 20 10 -3 6 -12 10 -20 10
-8 0 -17 -4 -20 -10z"/>
<path d="M4728 10053 c7 -3 16 -2 19 1 4 3 -2 6 -13 5 -11 0 -14 -3 -6 -6z"/>
<path d="M10260 11255 c0 -40 7 -42 52 -15 18 11 41 20 51 20 9 0 17 4 17 9 0
4 -11 6 -24 4 -13 -3 -27 0 -30 6 -4 6 -20 11 -37 11 -27 0 -29 -3 -29 -35z"/>
<path d="M4192 10354 c1 -9 9 -19 16 -22 9 -3 13 2 10 14 -1 9 -9 19 -16 22
-9 3 -13 -2 -10 -14z"/>
<path d="M8004 10174 c-17 -14 -17 -15 -1 -10 10 3 23 6 28 6 5 0 9 5 9 10 0
14 -13 12 -36 -6z"/>
<path d="M6470 9655 c0 -8 4 -15 10 -15 5 0 7 7 4 15 -4 8 -8 15 -10 15 -2 0
-4 -7 -4 -15z"/>
<path d="M6378 9474 c-5 -4 -8 -16 -8 -28 0 -14 3 -17 11 -9 6 6 9 19 7 28 -1
9 -6 13 -10 9z"/>
<path d="M17237 8003 c-13 -12 -7 -23 13 -23 11 0 20 7 20 15 0 15 -21 21 -33
8z"/>
<path d="M19483 7920 c-26 -10 -57 -54 -51 -71 2 -7 24 -17 49 -23 48 -12 65
-40 30 -51 -11 -3 -59 -7 -106 -8 -58 -1 -85 -6 -85 -14 0 -6 9 -14 19 -18 26
-8 33 -31 15 -46 -12 -9 -26 -9 -68 1 -55 13 -76 9 -76 -14 0 -8 -7 -19 -15
-26 -12 -10 -23 -90 -12 -90 13 1 78 29 99 44 18 12 37 16 52 12 31 -8 45 -45
22 -61 -19 -14 -21 -25 -5 -25 6 0 23 13 38 29 34 37 61 32 97 -15 24 -30 29
-33 72 -29 26 2 49 4 51 4 3 1 -5 11 -16 24 -21 23 -63 139 -63 174 0 33 28
48 93 49 35 0 63 6 65 12 5 16 -27 72 -42 72 -15 0 -56 42 -56 57 0 22 -64 30
-107 13z"/>
<path d="M19159 7513 c-39 -46 -49 -74 -49 -133 0 -43 4 -62 14 -66 8 -3 19
-17 25 -32 14 -34 65 -68 114 -75 20 -3 58 -20 83 -36 35 -24 56 -31 95 -31
28 0 59 -5 70 -11 16 -8 25 -7 37 4 9 8 41 27 69 43 29 16 53 34 53 40 0 6
-17 14 -39 18 -29 4 -46 15 -66 42 -22 28 -33 35 -52 31 -16 -3 -31 2 -42 14
-19 21 -82 49 -108 49 -17 -1 -17 -1 0 -11 21 -12 23 -59 2 -59 -8 0 -15 5
-15 11 0 5 -13 15 -29 20 -21 7 -37 25 -52 55 -12 25 -30 51 -41 57 -11 7 -28
29 -37 50 -16 36 -17 38 -32 20z m79 -246 c4 -20 -25 -34 -40 -19 -15 15 -1
44 19 40 10 -2 19 -11 21 -21z"/>
<path d="M8220 7561 c-17 -5 -26 -15 -28 -33 -3 -23 1 -26 33 -30 43 -5 45 -3
45 39 0 34 -5 37 -50 24z"/>
<path d="M9583 6009 c-30 -11 -29 -16 11 -62 l32 -39 35 20 c28 16 33 24 31
48 -2 16 -5 30 -5 30 -10 7 -87 9 -104 3z"/>
<path d="M11000 5535 c0 -17 5 -25 13 -22 6 2 12 12 12 22 0 10 -6 20 -12 23
-8 2 -13 -6 -13 -23z"/>
<path d="M11005 5480 c-7 -12 2 -30 16 -30 12 0 12 27 0 35 -5 3 -12 1 -16 -5z"/>
<path d="M18055 7525 c-37 -19 -65 -51 -65 -76 0 -10 -7 -39 -16 -65 -8 -25
-13 -58 -9 -71 5 -23 7 -24 23 -10 10 9 24 37 31 64 20 69 32 93 47 93 7 0 16
-9 19 -20 5 -15 15 -20 41 -20 40 0 43 12 9 34 -19 12 -25 25 -25 51 0 39 -10
43 -55 20z"/>
<path d="M7436 6662 l-49 -25 6 -96 c3 -53 8 -104 12 -113 15 -39 65 -27 65
16 0 11 7 34 15 50 16 29 22 197 8 195 -5 -1 -30 -13 -57 -27z"/>
<path d="M7410 6203 c-14 -18 -32 -28 -55 -29 -24 -2 -44 -13 -64 -36 -36 -39
-37 -45 -10 -74 38 -41 46 -190 22 -431 -5 -56 -4 -63 12 -63 9 0 32 12 50 28
19 15 54 42 80 61 41 31 48 33 72 22 47 -22 54 1 46 165 -5 123 -4 146 10 168
12 17 17 47 17 90 0 68 -6 76 -55 76 -13 0 -37 11 -53 25 -38 31 -46 31 -72
-2z"/>
<path d="M10747 6096 c-3 -8 -3 -17 0 -20 9 -9 44 14 38 25 -9 14 -32 11 -38
-5z"/>
<path d="M5914 5842 c-11 -7 -44 -92 -44 -112 0 -13 37 -13 44 -1 3 5 30 15
58 22 102 24 117 55 41 82 -51 18 -81 21 -99 9z"/>
<path d="M10557 5360 c-9 -11 -25 -20 -35 -20 -29 0 -62 -29 -62 -55 0 -16 11
-29 35 -44 21 -12 35 -28 35 -39 0 -11 7 -25 15 -32 9 -7 15 -29 15 -52 0 -47
15 -78 37 -78 9 0 26 -11 38 -24 20 -22 30 -24 123 -25 100 -1 102 0 102 22 0
12 6 31 14 42 22 33 29 90 11 105 -20 16 -19 47 1 58 10 6 14 20 12 43 -3 33
-4 34 -63 42 -33 5 -67 15 -77 23 -9 9 -22 14 -30 13 -34 -4 -60 3 -75 21 -11
12 -30 20 -48 20 -18 0 -37 -8 -48 -20z"/>
<path d="M8890 5345 c-14 -8 -35 -14 -47 -15 -12 0 -25 -4 -28 -10 -4 -6 -70
-10 -165 -10 -130 0 -161 3 -174 16 -12 12 -28 14 -76 8 -72 -8 -92 -29 -66
-69 18 -28 21 -55 5 -55 -6 0 -9 -14 -7 -32 l3 -33 72 -5 c52 -4 76 -10 85
-22 8 -11 39 -21 83 -28 110 -17 141 -28 159 -56 10 -13 28 -30 42 -36 16 -7
27 -23 31 -41 8 -37 29 -45 54 -18 11 11 26 21 33 21 19 0 25 49 18 168 -5
103 -5 104 21 125 18 15 29 36 33 65 6 41 6 42 -22 42 -16 -1 -40 -7 -54 -15z"/>
<path d="M10405 5190 c-3 -5 -1 -10 4 -10 6 0 11 5 11 10 0 6 -2 10 -4 10 -3
0 -8 -4 -11 -10z"/>
<path d="M8760 4704 c0 -8 5 -12 10 -9 6 3 10 10 10 16 0 5 -4 9 -10 9 -5 0
-10 -7 -10 -16z"/>
<path d="M11135 4530 c-3 -5 -3 -21 1 -36 7 -26 8 -26 67 -20 33 3 115 6 183
6 106 0 123 2 118 15 -5 11 -22 15 -68 15 -34 0 -66 -4 -72 -10 -12 -12 -138
7 -176 26 -32 16 -45 18 -53 4z"/>
<path d="M11530 4450 c0 -5 5 -10 10 -10 6 0 10 5 10 10 0 6 -4 10 -10 10 -5
0 -10 -4 -10 -10z"/>
<path d="M13373 4492 c-12 -16 -34 -32 -50 -35 -17 -4 -35 -18 -45 -37 -31
-55 -27 -59 60 -53 68 5 80 9 104 34 23 24 35 29 77 29 47 0 50 1 56 31 4 17
3 35 -1 39 -5 5 -47 12 -94 15 l-85 7 -22 -30z"/>
<path d="M8167 10583 c-2 -5 -7 -20 -11 -34 -5 -23 -1 -28 23 -39 16 -6 39 -9
50 -5 20 6 20 7 -6 46 -24 36 -46 49 -56 32z"/>
<path d="M7946 10503 c-25 -4 -28 -8 -23 -36 10 -67 -46 -113 -87 -72 -10 10
-35 15 -80 15 l-66 0 0 -29 c0 -17 6 -31 16 -35 30 -12 115 -6 145 10 26 13
39 14 80 4 41 -10 52 -9 71 4 12 9 32 16 43 16 37 0 115 31 115 46 0 13 -14
29 -54 62 -17 13 -114 23 -160 15z"/>
<path d="M8266 10495 c4 -8 10 -12 15 -9 14 8 10 24 -6 24 -9 0 -12 -6 -9 -15z"/>
<path d="M8317 10483 c-11 -13 -16 -27 -13 -31 10 -9 38 24 34 41 -2 12 -7 9
-21 -10z"/>
<path d="M9717 10223 c-4 -3 -7 -15 -7 -25 0 -21 32 -25 49 -5 17 22 -22 50
-42 30z"/>
<path d="M14220 7850 c0 -5 5 -10 10 -10 6 0 10 5 10 10 0 6 -4 10 -10 10 -5
0 -10 -4 -10 -10z"/>
<path d="M13288 7674 c-3 -3 -32 -12 -65 -20 -32 -9 -73 -25 -90 -37 -30 -20
-33 -27 -33 -72 l0 -50 62 -12 c33 -7 65 -18 69 -25 5 -7 9 -40 9 -73 0 -33 3
-70 6 -82 7 -26 24 -31 24 -8 0 12 14 15 69 15 37 0 81 4 97 10 16 5 48 14 71
20 33 8 40 14 36 29 -5 20 28 31 96 31 49 0 91 38 83 75 -4 25 -7 26 -46 20
-22 -4 -46 -13 -52 -21 -6 -8 -16 -14 -23 -14 -14 0 -15 27 -1 35 14 9 -6 44
-33 56 -12 6 -30 23 -39 38 -10 19 -28 31 -49 36 -19 4 -39 11 -45 16 -14 11
-103 39 -125 39 -9 0 -18 -3 -21 -6z"/>
<path d="M17556 3085 c-22 -23 -20 -31 14 -57 18 -13 30 -31 30 -44 0 -13 4
-25 9 -28 11 -7 2 -126 -10 -142 -5 -6 -22 -9 -39 -6 -18 2 -40 -2 -55 -12
-22 -15 -25 -15 -37 3 -7 10 -23 21 -35 25 -17 6 -23 16 -25 49 -3 39 -5 42
-36 45 -46 5 -55 -24 -17 -54 l29 -23 -22 -24 c-21 -22 -22 -27 -11 -78 6 -30
18 -58 25 -62 8 -4 14 -14 14 -21 0 -14 27 -29 85 -47 55 -16 60 -21 75 -85
11 -43 11 -60 2 -75 -16 -26 -15 -71 3 -95 8 -10 15 -25 15 -32 0 -7 11 -30
24 -51 20 -31 32 -39 65 -45 34 -5 42 -11 47 -34 3 -15 8 -34 10 -43 3 -9 22
-29 44 -43 22 -14 40 -32 40 -40 0 -8 12 -21 26 -31 14 -9 43 -32 65 -52 30
-28 39 -43 39 -69 0 -18 5 -36 10 -39 6 -3 10 -39 10 -80 0 -66 2 -74 21 -80
28 -9 39 9 39 67 0 59 7 78 31 78 11 0 28 6 39 13 29 17 42 -6 36 -64 -2 -25
-1 -51 4 -59 5 -8 2 -23 -8 -38 -14 -21 -21 -24 -59 -19 -24 2 -43 0 -43 -5 0
-5 11 -34 24 -66 13 -31 26 -68 28 -82 2 -21 9 -26 38 -28 34 -3 36 -1 47 40
29 110 49 152 79 164 38 16 90 -5 104 -41 23 -60 51 -114 61 -117 6 -2 12 -38
13 -86 2 -73 0 -86 -21 -114 -31 -43 -30 -76 2 -84 14 -3 31 -18 38 -33 8 -18
21 -26 39 -27 16 -1 36 -12 51 -29 22 -26 26 -27 57 -17 18 7 92 12 164 13 72
0 173 4 224 7 86 7 96 9 118 35 32 37 30 47 -11 93 -39 42 -39 42 -25 64 7 11
26 15 74 13 64 -1 65 -1 71 27 4 18 19 36 40 49 19 11 41 33 49 50 12 22 26
32 54 37 68 12 124 103 87 140 -9 10 -14 25 -11 35 3 11 9 28 12 39 5 15 0 22
-22 30 -52 20 -52 50 0 76 17 9 38 24 46 34 19 23 51 32 69 20 8 -5 17 -30 20
-56 5 -42 10 -49 36 -57 46 -15 65 -36 65 -74 0 -26 8 -41 30 -61 41 -36 39
-66 -5 -94 -19 -13 -35 -25 -35 -28 0 -3 18 -24 40 -45 34 -33 40 -45 40 -81
0 -35 -5 -46 -27 -62 l-28 -20 23 -31 c12 -17 22 -39 22 -50 0 -15 11 -23 48
-33 35 -10 51 -21 60 -42 9 -17 19 -25 28 -22 24 9 80 -19 105 -53 12 -17 28
-31 35 -31 7 0 22 -9 33 -21 17 -18 27 -20 88 -16 37 3 85 9 105 12 35 7 37 6
46 -26 6 -23 21 -43 50 -62 37 -25 42 -34 48 -77 7 -53 15 -64 55 -73 20 -5
28 -17 40 -54 13 -43 18 -48 61 -62 57 -19 70 -31 83 -79 6 -21 18 -38 28 -40
16 -3 17 26 17 446 l0 450 -65 4 c-72 4 -84 11 -69 36 8 12 30 19 75 23 35 3
-38 3 -162 1 -218 -5 -226 -4 -245 16 -17 18 -36 21 -159 27 -77 4 -145 12
-151 17 -7 5 -10 17 -7 28 3 13 -12 36 -50 77 -95 100 -114 132 -87 148 6 3
10 35 10 70 0 80 -14 92 -119 99 -40 3 -74 6 -75 8 -1 2 -8 16 -14 32 -12 27
-14 27 -31 12 -10 -9 -28 -16 -40 -16 -13 0 -34 -13 -49 -30 -15 -17 -36 -30
-48 -30 -23 0 -111 -76 -101 -86 3 -3 23 -12 44 -19 25 -9 38 -19 38 -32 0
-15 -9 -18 -56 -21 -41 -2 -59 1 -69 13 -17 20 -127 20 -154 0 -22 -17 -122
-20 -145 -6 -8 5 -11 16 -8 25 5 12 21 16 72 16 63 0 66 1 63 23 -3 20 -10 23
-71 27 -64 5 -79 12 -90 43 -1 5 -25 11 -52 14 -77 7 -93 12 -100 31 -3 9 -24
26 -47 36 -26 12 -45 29 -51 46 -8 20 -28 35 -73 56 -38 17 -66 37 -70 49 -10
31 -23 35 -121 35 -77 0 -95 3 -110 19 -19 20 -59 32 -110 35 -42 1 -43 24 -3
33 30 5 30 6 30 69 0 54 -4 67 -25 90 l-26 28 -15 -22 c-13 -19 -25 -22 -83
-22 -72 0 -97 13 -85 44 10 25 38 36 93 36 39 0 51 4 51 15 0 12 -13 15 -59
15 -56 0 -91 15 -91 39 0 15 25 31 50 31 14 0 31 4 39 9 12 8 12 13 -3 36 -9
14 -28 31 -42 37 -13 6 -24 15 -24 20 0 5 -5 6 -12 2 -6 -4 -46 -7 -87 -6 -76
0 -76 0 -76 28 0 16 8 31 20 38 11 6 22 12 24 14 3 1 -6 13 -18 26 -13 14 -26
40 -30 58 -7 32 -9 33 -63 38 -31 3 -60 9 -65 13 -4 5 -13 31 -18 59 -11 56
-24 67 -49 43z m-101 -385 c7 -23 -10 -50 -31 -50 -19 0 -25 16 -18 45 8 31
40 34 49 5z m105 -25 c0 -8 -7 -15 -15 -15 -8 0 -15 7 -15 15 0 8 7 15 15 15
8 0 15 -7 15 -15z m114 -321 c25 -10 19 -34 -8 -34 -29 0 -44 19 -25 31 17 11
14 10 33 3z m94 -27 c4 -20 -25 -34 -40 -19 -15 15 -1 44 19 40 10 -2 19 -11
21 -21z m822 -292 c0 -8 -7 -15 -15 -15 -8 0 -15 7 -15 15 0 8 7 15 15 15 8 0
15 -7 15 -15z m-490 -475 c0 -5 -4 -10 -10 -10 -5 0 -10 5 -10 10 0 6 5 10 10
10 6 0 10 -4 10 -10z"/>
<path d="M13390 2928 c0 -10 5 -18 10 -18 6 0 15 -10 20 -22 6 -16 9 -18 9 -7
1 9 -8 27 -19 40 -16 20 -19 21 -20 7z"/>
<path d="M13402 2810 c-10 -26 -8 -33 10 -50 33 -31 38 -24 21 28 -20 60 -19
59 -31 22z"/>
<path d="M13450 2695 c0 -9 9 -35 20 -57 11 -23 20 -51 20 -63 0 -12 9 -30 20
-40 11 -10 20 -22 20 -27 0 -20 53 -87 73 -92 27 -6 67 -87 67 -135 0 -22 10
-46 30 -71 17 -21 30 -47 30 -59 0 -11 9 -25 21 -31 29 -16 48 -66 42 -111 -4
-30 0 -44 21 -72 14 -18 26 -43 26 -53 0 -11 11 -35 24 -54 12 -19 29 -52 35
-72 7 -21 17 -40 22 -43 5 -4 9 -17 9 -29 0 -30 23 -49 48 -41 30 9 49 -18 57
-77 4 -29 18 -70 31 -90 15 -23 24 -52 24 -77 0 -34 4 -41 35 -55 27 -13 36
-24 41 -53 4 -19 17 -45 30 -56 29 -25 54 -107 54 -176 0 -48 2 -51 34 -65 47
-20 80 -89 68 -143 -11 -47 -1 -79 27 -88 11 -3 23 -15 26 -26 4 -12 22 -27
40 -35 19 -8 38 -20 42 -28 10 -18 64 -76 91 -98 12 -9 26 -36 32 -60 6 -24
22 -60 36 -80 13 -21 24 -51 24 -68 0 -16 9 -53 20 -82 12 -32 20 -77 20 -115
0 -34 5 -65 10 -68 6 -3 10 -28 10 -56 l0 -49 390 0 c248 0 390 4 390 10 0 5
-12 13 -26 16 -33 8 -129 66 -170 102 -19 17 -38 49 -49 82 -9 30 -28 78 -41
105 -21 45 -24 67 -28 225 -4 171 -10 202 -46 260 -5 8 -15 29 -23 45 -8 17
-29 57 -47 90 -17 33 -39 83 -48 110 -13 38 -22 51 -39 53 -23 3 -46 28 -75
81 l-17 31 -83 -5 c-46 -4 -89 -2 -96 3 -9 6 -14 33 -16 75 -1 45 -6 71 -18
84 -31 34 -78 132 -78 163 0 21 -10 41 -32 64 -68 69 -116 145 -132 210 -4 17
-13 26 -26 26 -23 0 -41 37 -34 66 6 25 -69 106 -114 124 -33 13 -37 20 -50
100 -6 35 -12 45 -31 50 -13 3 -28 12 -32 20 -4 8 -20 41 -35 73 -20 42 -33
57 -48 57 -41 0 -95 21 -98 38 -2 9 2 37 10 61 21 62 12 203 -16 256 -20 37
-21 38 -22 13 0 -14 -8 -40 -17 -56 -15 -26 -16 -37 -6 -74 11 -40 10 -45 -12
-65 -24 -23 -43 -111 -32 -153 7 -26 -17 -50 -43 -43 -16 4 -19 2 -14 -11 9
-23 -14 -46 -45 -46 -46 0 -56 14 -56 77 0 43 -8 73 -29 116 -24 50 -31 57
-57 57 -41 0 -65 29 -79 94 -7 34 -17 56 -25 56 -7 0 -25 16 -39 35 -29 37
-46 45 -46 20z"/>
<path d="M17945 2530 c3 -5 31 -10 61 -10 30 0 54 5 54 10 0 6 -27 10 -61 10
-37 0 -58 -4 -54 -10z"/>
<path d="M19470 1895 c0 -8 7 -15 15 -15 8 0 15 7 15 15 0 8 -7 15 -15 15 -8
0 -15 -7 -15 -15z"/>
<path d="M18046 1754 c-25 -25 -19 -34 24 -34 43 0 45 2 30 31 -13 23 -33 24
-54 3z"/>
<path d="M20558 492 c-59 -62 -71 -87 -64 -126 6 -32 -10 -77 -30 -83 -7 -2
-19 3 -27 12 -15 14 -17 13 -28 -7 -15 -28 -28 -38 -55 -38 -17 0 -23 -12 -38
-72 -20 -80 -41 -134 -56 -143 -18 -11 -47 5 -59 31 -8 19 -17 25 -38 22 -21
-2 -28 -11 -38 -46 l-13 -42 254 0 254 0 0 270 c0 149 -4 270 -9 270 -4 0 -29
-22 -53 -48z"/>
<path d="M730 150 c0 -12 -4 -30 -10 -40 -9 -16 -5 -18 35 -18 54 1 56 13 9
51 -33 28 -34 28 -34 7z"/>
</g>
</svg>
