<?xml version="1.0" encoding="utf-8"?>
<!-- Generator: Adobe Illustrator 19.2.0, SVG Export Plug-In . SVG Version: 6.00 Build 0)  -->
<svg version="1.1" id="Layer_1" xmlns="http://www.w3.org/2000/svg" xmlns:xlink="http://www.w3.org/1999/xlink" x="0px" y="0px"
	 viewBox="0 0 276 340.2" enable-background="new 0 0 276 340.2" xml:space="preserve">
<g>
	<g>
		<path fill="#231F20" d="M3418,477.8l-138-170.1l138-170.1l138,170.1L3418,477.8z M3288.1,307.7l130,160.2l130-160.2l-130-160.2
			L3288.1,307.7z"/>
	</g>
	<g>
		<rect x="3323" y="304.6" fill="#231F20" width="182.3" height="6.2"/>
	</g>
	<path fill="#231F20" d="M3397,215.1h19.9c4.1,0,7.9,0.8,11.6,2.4c3.6,1.6,6.8,3.7,9.5,6.5c2.7,2.7,4.9,5.9,6.5,9.5
		s2.4,7.5,2.4,11.6c0,4.1-0.8,7.9-2.4,11.6c-1.6,3.6-3.7,6.8-6.4,9.5c-2.7,2.7-5.9,4.9-9.5,6.5c-3.7,1.6-7.5,2.4-11.6,2.4H3397
		V215.1z M3416.9,265c2.8,0,5.4-0.5,7.8-1.6c2.4-1,4.5-2.5,6.3-4.3c1.8-1.8,3.2-4,4.3-6.4c1-2.4,1.6-5,1.6-7.7
		c0-2.7-0.5-5.3-1.6-7.7c-1-2.4-2.5-4.5-4.3-6.4c-1.8-1.8-4-3.3-6.4-4.3c-2.4-1-5-1.6-7.7-1.6h-10V265H3416.9z"/>
	<path fill="#231F20" d="M3380.4,339.8l18.9,37.5l18.7-37.5l18.8,37.5l18.8-37.5h11.1l-29.9,59.9l-18.8-37.5l-18.7,37.5l-30-59.9
		H3380.4z"/>
</g>
<g>
	<g>
		<path fill="#231F20" d="M138,340.2L0,170.1L138,0l138,170.1L138,340.2z M8,170.1l130,160.2l130-160.2L138,9.9L8,170.1z"/>
	</g>
	<g>
		<rect x="43" y="167" fill="#231F20" width="182.3" height="6.2"/>
	</g>
	<path fill="#231F20" d="M116.9,77.5h19.9c4.1,0,7.9,0.8,11.6,2.4c3.6,1.6,6.8,3.7,9.5,6.5c2.7,2.7,4.9,5.9,6.5,9.5
		c1.6,3.6,2.4,7.5,2.4,11.6c0,4.1-0.8,7.9-2.4,11.6c-1.6,3.6-3.7,6.8-6.4,9.5c-2.7,2.7-5.9,4.9-9.5,6.5c-3.7,1.6-7.5,2.4-11.6,2.4
		h-19.9V77.5z M136.9,127.4c2.8,0,5.4-0.5,7.8-1.6c2.4-1,4.5-2.5,6.3-4.3c1.8-1.8,3.2-4,4.3-6.4c1-2.4,1.6-5,1.6-7.7
		c0-2.7-0.5-5.3-1.6-7.7c-1-2.4-2.5-4.5-4.3-6.4c-1.8-1.8-4-3.3-6.4-4.3c-2.4-1-5-1.6-7.7-1.6h-10v39.9H136.9z"/>
	<path fill="#231F20" d="M100.4,202.2l18.9,37.5l18.7-37.5l18.8,37.5l18.8-37.5h11.1l-29.9,59.9L138,224.6l-18.7,37.5l-30-59.9
		H100.4z"/>
</g>
</svg>
